<svg xmlns="http://www.w3.org/2000/svg" viewBox="0 0 433.09 104.89"><title>logo-large</title><path d="M72.87,93.87a8,8,0,0,0-2.77-2.31,18,18,0,0,1-5-4.29A55.75,55.75,0,0,1,60,79.5a15.92,15.92,0,0,1-2.26-8.9c.09-1.92.21-3.84.45-5.74a30.49,30.49,0,0,1,1.49-6.72,27,27,0,0,0,.88-3.23,2.56,2.56,0,0,0-.12-1.83,7.51,7.51,0,0,0-2.54,2,13.22,13.22,0,0,0-3,6.82c-.06.39-.19.78-.28,1.17-1.25-.29-1.77-.84-1.73-2.08a10.09,10.09,0,0,1,2-6.16,45.25,45.25,0,0,0,5.94-9.35,27.14,27.14,0,0,0,1.2-3.67,1.16,1.16,0,0,0-.52-1.48c-.11.23-.2.41-.27.59a13.25,13.25,0,0,1-.83,2.23,18.6,18.6,0,0,1-1.89,2.63,43.18,43.18,0,0,1-5.82,5.57,12.41,12.41,0,0,1-1.08,1,.8.8,0,0,1-.75.05,1,1,0,0,1-.25-.72A1.34,1.34,0,0,1,51,51c.43-.6.86-1.2,1.34-1.75a42.22,42.22,0,0,0,6-9.19,20.07,20.07,0,0,0,1.5-3.67,11.7,11.7,0,0,0-.37-6.6c-.13-.4-.53-.89,0-1.23s.84.16,1.19.43.45.44.68.64.38.26.74.5a8.52,8.52,0,0,0,.05-1c-.06-.48-.18-.95-.24-1.44-.14-1,.36-1.35,1.3-1,.26.11.49.27.74.39l1,.48c.19-.79.2-.79-.23-1.29a29.88,29.88,0,0,0-11.48-8.4A17.85,17.85,0,0,0,46,16.59a1.61,1.61,0,0,0-1.75,1.95,12.5,12.5,0,0,0,5,8.72,1.22,1.22,0,0,0,1.16.32c-.18-.35-.3-.62-.45-.88a18.56,18.56,0,0,1-1.39-2.45,23.59,23.59,0,0,1-1.09-3.59c-.18-.79.25-1.18,1.06-1.13a2.12,2.12,0,0,1,.62.1c1.43.63,2.86,1.27,4.28,1.94a3,3,0,0,1,.82.65c.21.21.51.51.21.79a1.1,1.1,0,0,1-.83.24,7.27,7.27,0,0,1-1.23-.37c0,.78.49,1.08.81,1.5s.28.89-.38,1l-1.22.22.92.86a22.74,22.74,0,0,1,1.74,1.66,5.67,5.67,0,0,1,1.26,5.08,13.47,13.47,0,0,1-2.72,5.37c-1.48,1.94-3,3.85-4.62,5.7a41.86,41.86,0,0,0-7.71,13.47,29.83,29.83,0,0,0-1.75,13.88A25.09,25.09,0,0,0,42.5,81.91,37.12,37.12,0,0,0,57.86,95.29a1.8,1.8,0,0,0,.32.06,20.84,20.84,0,0,0-2.31-2.46,39.79,39.79,0,0,1-6.73-8.13A12.22,12.22,0,0,1,47.33,80a3.93,3.93,0,0,1,.16-.85,26.66,26.66,0,0,0,5.15,6.14c0-.21.07-.33,0-.41-.14-.39-.3-.78-.48-1.16a34.11,34.11,0,0,1-2.55-7.07,11.65,11.65,0,0,1-.32-5.28,1.12,1.12,0,0,1,.59-.92,8.16,8.16,0,0,1,.64,1.07c.77,1.83,1.57,3.66,2.24,5.53A20,20,0,0,0,56,82.64a32.87,32.87,0,0,0,10.64,8.68A27.62,27.62,0,0,0,72.87,93.87Z" transform="translate(-6.42 -4.9)" fill="#ce8129"/><path d="M20.22,61.07l.38.11c-.05,1.14-.06,2.29-.16,3.42-.13,1.53-.4,3.05-.49,4.57a25,25,0,0,0,.4,6.57,33.4,33.4,0,0,0,4.76,11.54c.24.37.48.76,1,.82A2.12,2.12,0,0,0,26,86.27a23.14,23.14,0,0,1-2.08-9.22,15.92,15.92,0,0,1,.5-4.56,5.75,5.75,0,0,1,.4-.88c.17.27.29.37.32.49a62.82,62.82,0,0,0,2.3,7,13.8,13.8,0,0,0,2.18,4,29.67,29.67,0,0,0,7.45,6.54c1.15.73,2.33,1.41,3.43,2.21,2,1.49,4,3.09,6,4.55a9.4,9.4,0,0,1,2.91,3.24c.56,1,1.05,2.13,1.57,3.19.11.23.23.45.4.77a2.44,2.44,0,0,0,.22-.51c.16-2.11.27-4.21-1.23-6-.23-.27-.39-.59-.61-.85C47.85,94,46,91.66,44.05,89.4a36.4,36.4,0,0,1-8.82-18.78,33.25,33.25,0,0,1,.49-12.88,23.52,23.52,0,0,1,3.73-8.25c.21-.29.48-.53.85-.94l.83,2.22c2.93-6.9,7.49-12.47,11.65-18.4a2,2,0,0,0-1.54.45c-1,.65-2,1.34-2.93,2a3.82,3.82,0,0,1-.68.48.82.82,0,0,1-.67,0,.73.73,0,0,1,0-.65c.3-.71.66-1.38,1-2.08a6.39,6.39,0,0,0,.24-.82,6.58,6.58,0,0,0-1.12.4,9.88,9.88,0,0,0-1.38.94A69.1,69.1,0,0,0,38,40.6c-1.74,1.91-3.41,3.88-5.12,5.83-.22.26-.5.61-.86.34a1.31,1.31,0,0,1-.3-.82,1.35,1.35,0,0,1,.1-.62c.26-.86.47-1.75.81-2.59.87-2.13,1.81-4.24,2.7-6.36.14-.32.46-.64.19-1.1a2.92,2.92,0,0,0-1.73,1.07c-2.35,2.34-4.69,4.69-7,7.08a14.63,14.63,0,0,0-2.41,2.88,53.33,53.33,0,0,0-5,11.49,12,12,0,0,0-.53,4.34,4.83,4.83,0,0,0,.25.81Z" transform="translate(-6.42 -4.9)" fill="#ce8129"/><path d="M42.13,17.74a5.47,5.47,0,0,0-2.78.23,33,33,0,0,0-7.24,2.67c-3,1.47-6,3-9,4.38a14.52,14.52,0,0,1-8.32,1.46,15.61,15.61,0,0,1-7.7-3.24,6.74,6.74,0,0,0-.62-.42,1.2,1.2,0,0,0,.14.77,15,15,0,0,0,7.86,6.9,31.88,31.88,0,0,1,3.07,1.4c-.21.37-.35.65-.52.9a45.09,45.09,0,0,0-3.87,7.42,38,38,0,0,0-2.8,12.6,23.39,23.39,0,0,0,.5,6.14c.38,1.77.95,3.49,1.46,5.23.1.34.18.76.8.8.06-.57.11-1.12.19-1.66.14-1,.26-2,.48-3,.1-.48.31-1,1-1.06a3,3,0,0,1,.28.64c.17.89.27,1.79.46,2.68.46,2.17,1,4.35,1.46,6.52a9.09,9.09,0,0,0,.53,1.3l.21-.06c-.08-.71-.2-1.41-.25-2.12a46,46,0,0,1-.06-8.05,45,45,0,0,1,1.66-8.92A34.35,34.35,0,0,1,25,39.8a1,1,0,0,0,.22-1.24c-.32.14-.61.28-.91.4-1.29.53-2.57,1.08-3.87,1.58-.56.22-1.22.38-1.61-.24s.12-1.07.49-1.47c1.66-1.75,3.28-3.54,5-5.18a32.09,32.09,0,0,1,3.83-2.9A3.84,3.84,0,0,1,30.58,30c.27,1.09-.74,1.78-.83,2.78a3.49,3.49,0,0,0,1.72-.53A14.73,14.73,0,0,1,33,31.61c.18-.05.42.07.83.15-1.12,1.44-2.11,2.73-3.14,4s-2.06,2.45-3.09,3.68c1-.68,1.95-1.47,2.92-2.21,2.15-1.67,4.3-3.33,6.48-5a7.37,7.37,0,0,1,1.66-.89c.36-.14.81-.33,1.18.22l-2.55,5.73a.89.89,0,0,0,.62-.24c.92-.81,1.81-1.65,2.75-2.43,2.25-1.88,4.45-3.83,7.21-5,.62-.25.63-.47.24-1-1.3-1.81-2.62-3.62-3.84-5.48A12.47,12.47,0,0,1,42.13,17.74Z" transform="translate(-6.42 -4.9)" fill="#ce8129"/><path d="M64.53,75.31c-.25.57-.41.91-.56,1.26a1.78,1.78,0,0,0,.46,2.15A118.41,118.41,0,0,0,75.79,89a13.76,13.76,0,0,1,4.33,6.18c.09.25.21.49.43,1A8.4,8.4,0,0,0,81,95a11,11,0,0,0,.09-4.16c-.14-1-.35-2-.47-3-.06-.42-.2-.92.43-1.29a10.63,10.63,0,0,0,1.1,1,9.78,9.78,0,0,1,3.48,5,20,20,0,0,1,1,8.35c0,.5-.16,1,.4,1.46a4.88,4.88,0,0,0,1.31-2A17.3,17.3,0,0,0,89,92.52a20,20,0,0,0-5.54-11.16c-1.82-1.87-3.88-3.51-5.84-5.25s-4-3.46-6-5.28a12.67,12.67,0,0,1-2.06-2.75,4,4,0,0,1-.48-2c0-1.28.31-2.55.44-3.84a17.49,17.49,0,0,0-.93-7.82A6.4,6.4,0,0,0,63.25,50a1.52,1.52,0,0,0-1.23.24c0,.1,0,.14,0,.16.15.28.3.55.46.82a8.42,8.42,0,0,1,1.26,5.09c-.16,1.7-.33,3.41-.35,5.11,0,2,.07,4.05.21,6.07a9.59,9.59,0,0,0,1,3.71c.76,1.49,1.41,3,2.08,4.56a4.88,4.88,0,0,1,.16,1.08Z" transform="translate(-6.42 -4.9)" fill="#ce8129"/><path d="M64.61,10.84a1.59,1.59,0,0,1,1.75.66,5,5,0,0,1,1.35,3.22c0,.26.27.7.43.71A1.29,1.29,0,0,0,69,15a2.79,2.79,0,0,0,.46-.93A4.16,4.16,0,0,0,69,10.57a9.93,9.93,0,0,0-6.91-5.3,19,19,0,0,0-6.77-.14A37.18,37.18,0,0,0,47,7.25c-1.66.65-3.33,1.25-5,1.89a3.84,3.84,0,0,1-2.15.2A8.41,8.41,0,0,0,38,9.27a.86.86,0,0,0-.64.35c-.14.33.11.6.44.7a4.74,4.74,0,0,0,1.12.23,22.13,22.13,0,0,0,6.8-.94A22.2,22.2,0,0,1,54,8.89a8.82,8.82,0,0,1,4.61,1.82,3.75,3.75,0,0,1,.47.63h-1a4.4,4.4,0,0,1-.73-.05,26.23,26.23,0,0,0-7.61.15c-1.35.17-2.68.42-4,.52-1.66.14-3.34.14-5,.22a15.35,15.35,0,0,1-3.11.05A17.44,17.44,0,0,1,27.26,7l-.62-.6a3.16,3.16,0,0,0,.69,1.87,16.11,16.11,0,0,0,6.83,5.87,17.23,17.23,0,0,0,9.3,1.43A35.2,35.2,0,0,1,49,15.18c.66,0,1.32.14,2,.19a12.64,12.64,0,0,1,8,3.49l2.63,2.42A2.35,2.35,0,0,0,63,22a5.46,5.46,0,0,0-.22-1.38c-.41-1-.9-1.89-1.37-2.82-.14-.27-.37-.51-.5-.79-.28-.63.06-1.06.74-.92a5.89,5.89,0,0,1,1.27.47l3.88,1.82a2.37,2.37,0,0,0,.57.08c-.57-1.29-1.14-2.48-1.62-3.7A10.63,10.63,0,0,1,64.61,10.84Z" transform="translate(-6.42 -4.9)" fill="#ce8129"/><path d="M74.13,25.89l-.08.21a7.63,7.63,0,0,0,.75.39c1.4.53,2.79,1.1,4.21,1.56a4.25,4.25,0,0,1,2.14,1.58c.43.6.85,1.19,1.3,1.77.17.24.36.54.81.3-.15-.56-.32-1.12-.46-1.68a3.12,3.12,0,0,1,.76-3c.14-.16.3-.3.43-.47.24-.32.26-.63-.13-.87,0,0-.08,0-.11,0l-.74.37a6.88,6.88,0,0,1-5.53.7c-.92-.32-1.87-.54-2.81-.79A3.19,3.19,0,0,0,74.13,25.89Z" transform="translate(-6.42 -4.9)" fill="#ce8129"/><path d="M99.12,38.91a9.07,9.07,0,0,0-7.85-4.49A19.35,19.35,0,0,1,99.12,38.91Z" transform="translate(-6.42 -4.9)" fill="#ce8129"/><path d="M87.56,36.73c1.25.33,2.81.66,4.32,1.17s2.9,1.2,4.51,1.87C94.71,37.87,90.8,36.62,87.56,36.73Z" transform="translate(-6.42 -4.9)" fill="#ce8129"/><path d="M95.87,43.25c-.48-1.78-2.35-3-4.85-3A8.55,8.55,0,0,1,95.87,43.25Z" transform="translate(-6.42 -4.9)" fill="#ce8129"/><path d="M72.87,93.87a27.62,27.62,0,0,1-6.2-2.55A32.87,32.87,0,0,1,56,82.64a20,20,0,0,1-3.23-5.59c-.67-1.87-1.47-3.7-2.24-5.53a8.16,8.16,0,0,0-.64-1.07,1.12,1.12,0,0,0-.59.92,11.65,11.65,0,0,0,.32,5.28,34.11,34.11,0,0,0,2.55,7.07c.18.38.34.77.48,1.16,0,.08,0,.2,0,.41a26.66,26.66,0,0,1-5.15-6.14,3.93,3.93,0,0,0-.16.85,12.22,12.22,0,0,0,1.81,4.76,39.79,39.79,0,0,0,6.73,8.13,20.84,20.84,0,0,1,2.31,2.46,1.8,1.8,0,0,1-.32-.06A37.12,37.12,0,0,1,42.5,81.91a25.09,25.09,0,0,1-3.68-10.27,29.83,29.83,0,0,1,1.75-13.88,41.86,41.86,0,0,1,7.71-13.47c1.6-1.85,3.14-3.76,4.62-5.7a13.47,13.47,0,0,0,2.72-5.37,5.67,5.67,0,0,0-1.26-5.08,22.74,22.74,0,0,0-1.74-1.66l-.92-.86,1.22-.22c.66-.13.8-.48.38-1s-.84-.72-.81-1.5a7.27,7.27,0,0,0,1.23.37,1.1,1.1,0,0,0,.83-.24c.3-.28,0-.58-.21-.79a3,3,0,0,0-.82-.65c-1.42-.67-2.85-1.31-4.28-1.94a2.12,2.12,0,0,0-.62-.1c-.81-.05-1.24.34-1.06,1.13a23.59,23.59,0,0,0,1.09,3.59A18.56,18.56,0,0,0,50,26.7c.15.26.27.53.45.88a1.22,1.22,0,0,1-1.16-.32,12.5,12.5,0,0,1-5-8.72A1.61,1.61,0,0,1,46,16.59a17.85,17.85,0,0,1,7.15,1.3,29.88,29.88,0,0,1,11.48,8.4c.43.5.42.5.23,1.29l-1-.48c-.25-.12-.48-.28-.74-.39-.94-.39-1.44,0-1.3,1,.06.49.18,1,.24,1.44a8.52,8.52,0,0,1-.05,1c-.36-.24-.56-.35-.74-.5s-.43-.46-.68-.64-.72-.73-1.19-.43-.11.83,0,1.23a11.7,11.7,0,0,1,.37,6.6,20.07,20.07,0,0,1-1.5,3.67,42.22,42.22,0,0,1-6,9.19c-.48.55-.91,1.15-1.34,1.75a1.34,1.34,0,0,0-.32.64,1,1,0,0,0,.25.72.8.8,0,0,0,.75-.05,12.41,12.41,0,0,0,1.08-1,43.18,43.18,0,0,0,5.82-5.57,18.6,18.6,0,0,0,1.89-2.63,13.25,13.25,0,0,0,.83-2.23c.07-.18.16-.36.27-.59a1.16,1.16,0,0,1,.52,1.48,27.14,27.14,0,0,1-1.2,3.67,45.25,45.25,0,0,1-5.94,9.35,10.09,10.09,0,0,0-2,6.16c0,1.24.48,1.79,1.73,2.08.09-.39.22-.78.28-1.17a13.22,13.22,0,0,1,3-6.82,7.51,7.51,0,0,1,2.54-2,2.56,2.56,0,0,1,.12,1.83,27,27,0,0,1-.88,3.23,30.49,30.49,0,0,0-1.49,6.72c-.24,1.9-.36,3.82-.45,5.74A15.92,15.92,0,0,0,60,79.5a55.75,55.75,0,0,0,5.12,7.77,18,18,0,0,0,5,4.29A8,8,0,0,1,72.87,93.87Z" transform="translate(-6.42 -4.9)" fill="#ce8129"/><path d="M20.22,61.07,19.13,63a4.83,4.83,0,0,1-.25-.81,12,12,0,0,1,.53-4.34,53.33,53.33,0,0,1,5-11.49,14.63,14.63,0,0,1,2.41-2.88c2.31-2.39,4.65-4.74,7-7.08a2.92,2.92,0,0,1,1.73-1.07c.27.46,0,.78-.19,1.1-.89,2.12-1.83,4.23-2.7,6.36-.34.84-.55,1.73-.81,2.59a1.35,1.35,0,0,0-.1.62,1.31,1.31,0,0,0,.3.82c.36.27.64-.08.86-.34,1.71-2,3.38-3.92,5.12-5.83a69.1,69.1,0,0,1,7.62-7.49A9.88,9.88,0,0,1,47,32.17a6.58,6.58,0,0,1,1.12-.4,6.39,6.39,0,0,1-.24.82c-.33.7-.69,1.37-1,2.08a.73.73,0,0,0,0,.65.82.82,0,0,0,.67,0,3.82,3.82,0,0,0,.68-.48c1-.68,1.93-1.37,2.93-2a2,2,0,0,1,1.54-.45c-4.16,5.93-8.72,11.5-11.65,18.4l-.83-2.22c-.37.41-.64.65-.85.94a23.52,23.52,0,0,0-3.73,8.25,33.25,33.25,0,0,0-.49,12.88A36.4,36.4,0,0,0,44.05,89.4c1.92,2.26,3.8,4.56,5.7,6.85.22.26.38.58.61.85,1.5,1.76,1.39,3.86,1.23,6a2.44,2.44,0,0,1-.22.51c-.17-.32-.29-.54-.4-.77-.52-1.06-1-2.15-1.57-3.19a9.4,9.4,0,0,0-2.91-3.24c-2-1.46-4-3.06-6-4.55-1.1-.8-2.28-1.48-3.43-2.21a29.67,29.67,0,0,1-7.45-6.54,13.8,13.8,0,0,1-2.18-4,62.82,62.82,0,0,1-2.3-7c0-.12-.15-.22-.32-.49a5.75,5.75,0,0,0-.4.88,15.92,15.92,0,0,0-.5,4.56A23.14,23.14,0,0,0,26,86.27a2.12,2.12,0,0,1,.16,1.83c-.55-.06-.79-.45-1-.82a33.4,33.4,0,0,1-4.76-11.54,25,25,0,0,1-.4-6.57c.09-1.52.36-3,.49-4.57.1-1.13.11-2.28.16-3.42Z" transform="translate(-6.42 -4.9)" fill="#ce8129"/><path d="M42.13,17.74a12.47,12.47,0,0,0,2.16,5.45c1.22,1.86,2.54,3.67,3.84,5.48.39.55.38.77-.24,1-2.76,1.14-5,3.09-7.21,5-.94.78-1.83,1.62-2.75,2.43a.89.89,0,0,1-.62.24l2.55-5.73c-.37-.55-.82-.36-1.18-.22a7.37,7.37,0,0,0-1.66.89c-2.18,1.63-4.33,3.29-6.48,5-1,.74-1.9,1.53-2.92,2.21,1-1.23,2.08-2.44,3.09-3.68s2-2.56,3.14-4c-.41-.08-.65-.2-.83-.15a14.73,14.73,0,0,0-1.55.62,3.49,3.49,0,0,1-1.72.53c.09-1,1.1-1.69.83-2.78a3.84,3.84,0,0,0-2.36.77,32.09,32.09,0,0,0-3.83,2.9c-1.76,1.64-3.38,3.43-5,5.18-.37.4-.86.87-.49,1.47s1.05.46,1.61.24c1.3-.5,2.58-1,3.87-1.58.3-.12.59-.26.91-.4A1,1,0,0,1,25,39.8a34.35,34.35,0,0,0-6,11.46,45,45,0,0,0-1.66,8.92,46,46,0,0,0,.06,8.05c.05.71.17,1.41.25,2.12l-.21.06a9.09,9.09,0,0,1-.53-1.3c-.51-2.17-1-4.35-1.46-6.52-.19-.89-.29-1.79-.46-2.68a3,3,0,0,0-.28-.64c-.74,0-.95.58-1,1.06-.22,1-.34,2-.48,3-.08.54-.13,1.09-.19,1.66-.62,0-.7-.46-.8-.8-.51-1.74-1.08-3.46-1.46-5.23a23.39,23.39,0,0,1-.5-6.14,38,38,0,0,1,2.8-12.6A45.09,45.09,0,0,1,17,32.79c.17-.25.31-.53.52-.9a31.88,31.88,0,0,0-3.07-1.4,15,15,0,0,1-7.86-6.9,1.2,1.2,0,0,1-.14-.77,6.74,6.74,0,0,1,.62.42,15.61,15.61,0,0,0,7.7,3.24A14.52,14.52,0,0,0,23.07,25c3-1.4,6-2.91,9-4.38A33,33,0,0,1,39.35,18,5.47,5.47,0,0,1,42.13,17.74Z" transform="translate(-6.42 -4.9)" fill="#ce8129"/><path d="M64.53,75.31l2.29,1.57a4.88,4.88,0,0,0-.16-1.08c-.67-1.53-1.32-3.07-2.08-4.56a9.59,9.59,0,0,1-1-3.71c-.14-2-.23-4.05-.21-6.07,0-1.7.19-3.41.35-5.11a8.42,8.42,0,0,0-1.26-5.09c-.16-.27-.31-.54-.46-.82,0,0,0-.06,0-.16A1.52,1.52,0,0,1,63.25,50a6.4,6.4,0,0,1,5.38,4.38,17.49,17.49,0,0,1,.93,7.82c-.13,1.29-.39,2.56-.44,3.84a4,4,0,0,0,.48,2,12.67,12.67,0,0,0,2.06,2.75c1.93,1.82,4,3.52,6,5.28s4,3.38,5.84,5.25A20,20,0,0,1,89,92.52a17.3,17.3,0,0,1-.63,7.86,4.88,4.88,0,0,1-1.31,2c-.56-.41-.44-1-.4-1.46a20,20,0,0,0-1-8.35,9.78,9.78,0,0,0-3.48-5,10.63,10.63,0,0,1-1.1-1c-.63.37-.49.87-.43,1.29.12,1,.33,2,.47,3A11,11,0,0,1,81,95a8.4,8.4,0,0,1-.47,1.1c-.22-.49-.34-.73-.43-1A13.76,13.76,0,0,0,75.79,89,118.41,118.41,0,0,1,64.43,78.72,1.78,1.78,0,0,1,64,76.57C64.12,76.22,64.28,75.88,64.53,75.31Z" transform="translate(-6.42 -4.9)" fill="#ce8129"/><path d="M64.61,10.84a10.63,10.63,0,0,0,1.17,3.93c.48,1.22,1,2.41,1.62,3.7a2.37,2.37,0,0,1-.57-.08L63,16.57a5.89,5.89,0,0,0-1.27-.47c-.68-.14-1,.29-.74.92.13.28.36.52.5.79.47.93,1,1.86,1.37,2.82A5.46,5.46,0,0,1,63,22a2.35,2.35,0,0,1-1.48-.73l-2.63-2.42a12.64,12.64,0,0,0-8-3.49c-.66,0-1.32-.15-2-.19a35.2,35.2,0,0,0-5.52.34,17.23,17.23,0,0,1-9.3-1.43,16.11,16.11,0,0,1-6.83-5.87,3.16,3.16,0,0,1-.69-1.87l.62.6a17.44,17.44,0,0,0,10.32,5.28,15.35,15.35,0,0,0,3.11-.05c1.68-.08,3.36-.08,5-.22,1.36-.1,2.69-.35,4-.52a26.23,26.23,0,0,1,7.61-.15,4.4,4.4,0,0,0,.73.05h1a3.75,3.75,0,0,0-.47-.63A8.82,8.82,0,0,0,54,8.89a22.2,22.2,0,0,0-8.27.72,22.13,22.13,0,0,1-6.8.94,4.74,4.74,0,0,1-1.12-.23c-.33-.1-.58-.37-.44-.7A.86.86,0,0,1,38,9.27a8.41,8.41,0,0,1,1.88.07,3.84,3.84,0,0,0,2.15-.2c1.66-.64,3.33-1.24,5-1.89a37.18,37.18,0,0,1,8.28-2.12,19,19,0,0,1,6.77.14A9.93,9.93,0,0,1,69,10.57a4.16,4.16,0,0,1,.45,3.52A2.79,2.79,0,0,1,69,15a1.29,1.29,0,0,1-.85.41c-.16,0-.41-.45-.43-.71a5,5,0,0,0-1.35-3.22A1.59,1.59,0,0,0,64.61,10.84Z" transform="translate(-6.42 -4.9)" fill="#ce8129"/><path d="M74.13,25.89a3.19,3.19,0,0,1,.54.07c.94.25,1.89.47,2.81.79a6.88,6.88,0,0,0,5.53-.7l.74-.37s.07,0,.11,0c.39.24.37.55.13.87-.13.17-.29.31-.43.47a3.12,3.12,0,0,0-.76,3c.14.56.31,1.12.46,1.68-.45.24-.64-.06-.81-.3-.45-.58-.87-1.17-1.3-1.77A4.25,4.25,0,0,0,79,28.05c-1.42-.46-2.81-1-4.21-1.56a7.63,7.63,0,0,1-.75-.39Z" transform="translate(-6.42 -4.9)" fill="#ce8129"/><path d="M99.12,38.91a19.35,19.35,0,0,0-7.85-4.49A9.07,9.07,0,0,1,99.12,38.91Z" transform="translate(-6.42 -4.9)" fill="#ce8129"/><path d="M87.56,36.73c3.24-.11,7.15,1.14,8.83,3-1.61-.67-3-1.36-4.51-1.87S88.81,37.06,87.56,36.73Z" transform="translate(-6.42 -4.9)" fill="#ce8129"/><path d="M95.87,43.25a8.55,8.55,0,0,0-4.85-3C93.52,40.3,95.39,41.47,95.87,43.25Z" transform="translate(-6.42 -4.9)" fill="#ce8129"/><path d="M106.92,32.71c-.34-.52-.63-1.08-.93-1.63a8.56,8.56,0,0,0-2-2.64,2.82,2.82,0,0,0-2-.74,13.79,13.79,0,0,1-7-1.58l-1.68-.85a14.86,14.86,0,0,0-4.75-1.58A3.3,3.3,0,0,1,86,22.33a3.09,3.09,0,0,0-.52-.5c-4-3.48-8.68-4.76-13.82-4.82a1.1,1.1,0,0,0-.52,0c-.16.08-.37.28-.36.42s.23.31.4.39a1.46,1.46,0,0,0,.52,0,23.26,23.26,0,0,1,7,1.33,10.53,10.53,0,0,1,6.17,5.05,1.89,1.89,0,0,0,.85.69,5.81,5.81,0,0,0,1.11.27c1.8.42,3.61.77,5.38,1.28a60.54,60.54,0,0,0,8.72,2.11,5.55,5.55,0,0,1,3.8,2.54,2,2,0,0,1,.34.75c.15.75-.39,1.19-1.11.94a7.31,7.31,0,0,0-.78-.29,1.72,1.72,0,0,0-2.24,1,14.53,14.53,0,0,1,1.3.79,8.4,8.4,0,0,1,1.7,1.36,5.39,5.39,0,0,1,.74,5.81,15,15,0,0,1-6,6.63,2.3,2.3,0,0,1-.57.27,1.22,1.22,0,0,1-1.48-.47,3.66,3.66,0,0,1-.43-.94,1.19,1.19,0,0,0-1.36-1,17.37,17.37,0,0,1-1.77,0A10.61,10.61,0,0,1,87.75,44a3.12,3.12,0,0,1-1.24-1.86,8.3,8.3,0,0,0-.68-1.86,1.29,1.29,0,0,0-1.34-.82,6.92,6.92,0,0,1-4.94-1.65c-1.17-.87-2.22-1.91-3.33-2.87-.19-.17-.4-.33-.58-.47a.5.5,0,0,0-.2.78,13.18,13.18,0,0,0,1,1.71c1,1.25,2,2.45,3,3.67.24.31.63.55.6,1a3.9,3.9,0,0,1-2.29.29,19.23,19.23,0,0,1-7.06-2.14c-2.29-1.24-4.56-2.54-6.9-3.85a3.51,3.51,0,0,0,.76,1.66,31.2,31.2,0,0,0,2.07,2.5,30.15,30.15,0,0,0,5.17,4.25,6.67,6.67,0,0,1,.8.72,2.3,2.3,0,0,1-1.77.86,14.53,14.53,0,0,0-6.26,1.85,5.88,5.88,0,0,0-.68.51,4.55,4.55,0,0,0,.94.43,27.57,27.57,0,0,0,3,.42,4.43,4.43,0,0,1,3.84,2.91,15,15,0,0,1,.6,3.69A27.13,27.13,0,0,1,72,61.58a5.9,5.9,0,0,0,0,1.57,15.31,15.31,0,0,0,1.82,5.42,18.53,18.53,0,0,0,8.71,7.58,6.13,6.13,0,0,1,.92.47A18.58,18.58,0,0,1,91,86.35a24,24,0,0,1,1.11,10.11,25.22,25.22,0,0,1-2.22,8.66c-.48,1-1,2-1.48,3-.27.55-.56,1.1-.84,1.65a28.91,28.91,0,0,0,6.56-8,24.06,24.06,0,0,0,2.59-17.2c-.4-1.79-1.08-3.52-1.64-5.28-.13-.41-.43-.81,0-1.29,1.93.64,3.11,2.44,5.08,3.27a7.53,7.53,0,0,0,.12-1.12,8.18,8.18,0,0,0-3-5.78,22.42,22.42,0,0,0-5.75-3.4c-2.25-1-4.52-1.84-6.79-2.75a31.66,31.66,0,0,1-7.2-4,5.29,5.29,0,0,1-1-1,1.19,1.19,0,0,1,.35-1.88,2.5,2.5,0,0,1,.86-.36A15.88,15.88,0,0,1,80,60.58a7,7,0,0,1,4.73,1.36,9.48,9.48,0,0,1,.92,1c-.51.26-.88.44-1.25.64s-.8.36-.65.82c.09.27.47.44.74.65a.7.7,0,0,0,.29.09,12,12,0,0,0,6.3.23c3.34-.82,5.27-3.06,6.41-6.18a3,3,0,0,0-.36-3,4.45,4.45,0,0,0-2.36-2,4.21,4.21,0,0,0-3.22.45,6.57,6.57,0,0,1-3.45.68,3.6,3.6,0,0,1-3.32-4.48,22.43,22.43,0,0,1,1.1-3,2.8,2.8,0,0,1,4.27-1.25,4.35,4.35,0,0,0,3.38.66,1.2,1.2,0,0,1,1.55.89,7.82,7.82,0,0,1,.36,1.52c.15,1,.49,1.19,1.42.87a11.34,11.34,0,0,0,3.33-1.72,20.59,20.59,0,0,0,5-5.07,6.23,6.23,0,0,0,1-2.72c.12-1.18.19-2.36.28-3.54a1.83,1.83,0,0,0,0-.52,3.94,3.94,0,0,1,.41-2.83A1.4,1.4,0,0,0,106.92,32.71ZM88.6,57.84l-.8-1a3.29,3.29,0,0,1,.69-.4c1.47-.44,2.93-.89,4.41-1.26a2.82,2.82,0,0,1,1.41.07c.72.21,1.41.62,1.48,1.45a1.88,1.88,0,0,1-1.14,1.86,16,16,0,0,1-2.91,1.11,9.21,9.21,0,0,1-5.54-.36,5.71,5.71,0,0,1-.67-.3,4.22,4.22,0,0,1-.43-.41C86.25,57.92,87.46,58.21,88.6,57.84Z" transform="translate(-6.42 -4.9)" fill="#ce8129"/><path d="M142.83,9.18l-.24.33c.19.17.34.45.56.51.52.13,1.07.15,1.61.24a3.62,3.62,0,0,1,3.34,3.4,22.58,22.58,0,0,1,.15,2.85c0,4.82.05,9.64,0,14.45a46.54,46.54,0,0,1-.42,6.25,8.42,8.42,0,0,1-6.43,7.31,10.33,10.33,0,0,1-5.65.09c-2.63-.72-4.57-2.25-5.09-5.08a18.21,18.21,0,0,1-.3-3.12q0-11,0-22.08a9.78,9.78,0,0,1,.13-1.63,2.66,2.66,0,0,1,2.5-2.45c.81-.12,1.63-.16,2.44-.21.45,0,.7-.19.51-.77H115.63c.41.41.57.7.78.74.62.13,1.26.14,1.89.24A2.75,2.75,0,0,1,120.84,13c.09,1.08.14,2.17.14,3.26,0,5.78,0,11.55,0,17.32a34.93,34.93,0,0,0,.15,3.54A10.28,10.28,0,0,0,126,45.35a13.71,13.71,0,0,0,4.24,1.79,26.75,26.75,0,0,0,8.13.39A14.16,14.16,0,0,0,144,46c3.35-1.84,5.76-4.42,6.19-8.41a42.23,42.23,0,0,0,.33-4.35c.05-5.54.05-11.08.07-16.63a24.63,24.63,0,0,1,.13-2.58c.27-2.33,1.37-3.44,3.71-3.84.53-.08,1.06-.13,1.6-.2.14-.93-.5-.76-.94-.76-3.5,0-7,0-10.5,0Z" transform="translate(-6.42 -4.9)" fill="#72473c"/><path d="M162.78,47.6V46c0-3.5,0-7,0-10.5,0-3.3,1.69-4.93,4.95-5,3.63-.1,7.27-.13,10.9-.31a8.12,8.12,0,0,0,7.25-4.35A12.15,12.15,0,0,0,185.4,13a7.86,7.86,0,0,0-7-3.76c-6.68.06-13.36,0-20,0h-1.51v6h18.32c.54,0,1.09,0,1.63,0a4.1,4.1,0,0,1,4.33,4.39,5.15,5.15,0,0,1,0,.68c-.12,2.42-1.37,3.61-3.8,3.66l-11,.26a10.41,10.41,0,0,0-5.19,1.48,8,8,0,0,0-4.32,7.1c0,4.59,0,9.18,0,13.77a7.72,7.72,0,0,0,.13,1.05Z" transform="translate(-6.42 -4.9)" fill="#72473c"/><path d="M187.42,47.56h34.5c.48-4.34,1-8.6,1.44-12.83-.8-.35-1.08-.08-1.34.55A51.22,51.22,0,0,1,219.5,41a8,8,0,0,1-6.24,4.38,79.09,79.09,0,0,1-9,.09,2.07,2.07,0,0,1-2-1.93,16.51,16.51,0,0,1-.22-2.44q0-12.62,0-25.22c0-.55,0-1.09.07-1.64.14-2,1.18-3,3.38-3.18.63-.06,1.27,0,1.91-.05s.66-.36.51-.9H187.42c-.16.52-.1.86.48.9s1.28,0,1.91.09A3,3,0,0,1,192.66,14a22.35,22.35,0,0,1,.13,2.31q0,12.56,0,25.09a19.78,19.78,0,0,1-.13,2.18,3,3,0,0,1-3,3c-.59.06-1.19,0-1.77.1S187.25,47.08,187.42,47.56Z" transform="translate(-6.42 -4.9)" fill="#72473c"/><path d="M169.22,66.77H134.85v4.29h30q8.58,0,8.58,8.55V92.5q0,8.59-8.58,8.59H122V88.22l38.62,0V83.93h-30q-8.58,0-8.58-8.54V62.52q0-8.62,8.58-8.62h42.91Z" transform="translate(-6.42 -4.9)" fill="#ce8129"/><path d="M182.05,62.52q0-8.58,8.58-8.58h34.29q8.58,0,8.58,8.58v38.62H220.67l0-34.33H194.92V88.26h21.43l-4.29,12.88H190.67q-8.62,0-8.62-8.58Z" transform="translate(-6.42 -4.9)" fill="#ce8129"/><path d="M242.12,101.14V45.36q0-8.58,8.59-8.59h12.87l-4.29,12.88H255v4.29h4.29V66.81H255v34.33Z" transform="translate(-6.42 -4.9)" fill="#ce8129"/><path d="M267.87,62.52q0-8.58,8.57-8.58h34.3q8.58,0,8.58,8.58v38.62H306.49l-.05-34.33h-25.7V88.26h21.43l-4.29,12.88H276.49q-8.62,0-8.62-8.58Z" transform="translate(-6.42 -4.9)" fill="#ce8129"/><path d="M327.94,101.14V62.52q0-8.58,8.58-8.58h25.7l-4.29,12.87H340.81v34.33Z" transform="translate(-6.42 -4.9)" fill="#ce8129"/><path d="M379.43,36.77l-4.29,12.88h-8.58V36.77Zm0,64.37V53.94H366.56v47.2Z" transform="translate(-6.42 -4.9)" fill="#ce8129"/><path d="M435.25,66.77H400.88v4.29h30q8.58,0,8.58,8.55V92.5q0,8.59-8.58,8.59H388V88.22l38.62,0V83.93h-30q-8.58,0-8.58-8.54V62.52q0-8.62,8.58-8.62H439.5Z" transform="translate(-6.42 -4.9)" fill="#ce8129"/></svg>