<svg xmlns="http://www.w3.org/2000/svg" viewBox="0 0 89.89 93.63"><title>Asset 1</title><path d="M59.32,79.43a7.11,7.11,0,0,0-2.47-2.06,16.12,16.12,0,0,1-4.43-3.83,50.75,50.75,0,0,1-4.58-6.94,14.27,14.27,0,0,1-2-7.94c.08-1.71.18-3.43.4-5.12a27,27,0,0,1,1.33-6,23.52,23.52,0,0,0,.78-2.88A2.21,2.21,0,0,0,48.23,43,7,7,0,0,0,46,44.8a11.81,11.81,0,0,0-2.65,6.09c-.06.35-.17.7-.25,1-1.12-.26-1.58-.76-1.54-1.87a9,9,0,0,1,1.76-5.49,40.72,40.72,0,0,0,5.31-8.35A27.77,27.77,0,0,0,49.67,33a1.05,1.05,0,0,0-.47-1.33c-.1.21-.18.37-.24.53a11.81,11.81,0,0,1-.74,2,17.62,17.62,0,0,1-1.68,2.35,40.14,40.14,0,0,1-5.2,5c-.33.27-.61.63-1,.87a.73.73,0,0,1-.67,0,.83.83,0,0,1-.22-.64,1.23,1.23,0,0,1,.29-.58c.38-.53.76-1.06,1.19-1.56a37.56,37.56,0,0,0,5.35-8.2,17.93,17.93,0,0,0,1.34-3.28,10.48,10.48,0,0,0-.33-5.89c-.12-.35-.47-.79,0-1.09s.75.14,1.06.37.4.4.61.58.34.23.66.45a6.6,6.6,0,0,0,0-.93c-.05-.43-.16-.85-.21-1.29-.12-.88.32-1.21,1.16-.85.23.09.44.23.66.34l.92.43c.17-.7.18-.71-.21-1.15a26.63,26.63,0,0,0-10.24-7.5,16,16,0,0,0-6.39-1.16,1.44,1.44,0,0,0-1.56,1.74A11.12,11.12,0,0,0,38.31,20a1.08,1.08,0,0,0,1,.29c-.15-.31-.26-.55-.39-.78a18.39,18.39,0,0,1-1.25-2.19,22.27,22.27,0,0,1-1-3.2c-.16-.71.22-1.06.94-1a1.5,1.5,0,0,1,.56.09c1.28.56,2.55,1.13,3.82,1.73a3.06,3.06,0,0,1,.73.57c.19.19.46.46.19.72a1,1,0,0,1-.74.2,5.52,5.52,0,0,1-1.09-.33c0,.7.43,1,.72,1.34s.25.8-.34.92l-1.1.19.83.77a19.74,19.74,0,0,1,1.55,1.48,5.08,5.08,0,0,1,1.13,4.54,12.16,12.16,0,0,1-2.43,4.79q-2,2.61-4.12,5.09a37.25,37.25,0,0,0-6.89,12,26.59,26.59,0,0,0-1.56,12.4,22.49,22.49,0,0,0,3.28,9.16A33.12,33.12,0,0,0,45.93,80.69a.89.89,0,0,0,.28.07,19,19,0,0,0-2.06-2.21,35.46,35.46,0,0,1-6-7.25,10.89,10.89,0,0,1-1.61-4.25,3.33,3.33,0,0,1,.14-.76,23.66,23.66,0,0,0,4.59,5.48c0-.19.07-.29,0-.37-.13-.34-.26-.69-.42-1a29.56,29.56,0,0,1-2.28-6.31,10.46,10.46,0,0,1-.29-4.72,1,1,0,0,1,.53-.82,8.94,8.94,0,0,1,.57,1c.68,1.63,1.4,3.26,2,4.93a18,18,0,0,0,2.88,5,29.46,29.46,0,0,0,9.5,7.75A25.23,25.23,0,0,0,59.32,79.43Z" fill="#ce8129"/><path d="M12.33,50.15l.33.1c0,1-.05,2-.14,3-.12,1.36-.36,2.72-.44,4.08a22.16,22.16,0,0,0,.36,5.86,29.9,29.9,0,0,0,4.25,10.31c.22.33.43.68.92.73a1.91,1.91,0,0,0-.14-1.64,20.51,20.51,0,0,1-1.86-8.23,14.32,14.32,0,0,1,.44-4.07,6.24,6.24,0,0,1,.36-.78c.16.24.26.33.28.44a56.29,56.29,0,0,0,2.06,6.2,12.2,12.2,0,0,0,1.95,3.6,26.47,26.47,0,0,0,6.64,5.84c1,.65,2.09,1.26,3.07,2,1.81,1.33,3.54,2.76,5.37,4.06a8.43,8.43,0,0,1,2.59,2.89c.51.93.94,1.9,1.4,2.85.1.21.21.41.36.69.1-.23.19-.34.19-.46.15-1.88.25-3.75-1.09-5.33-.2-.24-.35-.52-.55-.76-1.69-2-3.37-4.09-5.09-6.11a32.57,32.57,0,0,1-7.87-16.76,29.68,29.68,0,0,1,.44-11.5,21.19,21.19,0,0,1,3.33-7.37c.19-.26.43-.48.76-.84L31,41c2.62-6.17,6.68-11.14,10.4-16.43a1.76,1.76,0,0,0-1.37.4c-.89.58-1.75,1.2-2.62,1.8a3.4,3.4,0,0,1-.61.43.71.71,0,0,1-.59,0,.61.61,0,0,1,0-.58c.27-.63.59-1.23.88-1.86a4.46,4.46,0,0,0,.21-.72,5.65,5.65,0,0,0-1,.35,9.22,9.22,0,0,0-1.23.84,62.16,62.16,0,0,0-6.8,6.68c-1.55,1.71-3,3.47-4.56,5.21-.21.23-.46.54-.78.3-.17-.13-.22-.47-.27-.73a1.35,1.35,0,0,1,.09-.55c.24-.77.43-1.57.73-2.31.78-1.91,1.61-3.79,2.41-5.68.12-.29.41-.57.17-1a2.55,2.55,0,0,0-1.54.95q-3.16,3.14-6.25,6.32A13.16,13.16,0,0,0,16.06,37,48.45,48.45,0,0,0,11.6,47.23a10.62,10.62,0,0,0-.47,3.88,4.66,4.66,0,0,0,.22.72Z" fill="#ce8129"/><path d="M31.88,11.47a4.77,4.77,0,0,0-2.48.2,29.16,29.16,0,0,0-6.46,2.39c-2.69,1.31-5.36,2.65-8.07,3.91a13,13,0,0,1-7.43,1.3,13.92,13.92,0,0,1-6.87-2.9C.39,16.24.2,16.13,0,16a1,1,0,0,0,.13.69,13.43,13.43,0,0,0,7,6.16A30.14,30.14,0,0,1,9.9,24.1c-.19.33-.32.58-.47.81A39.27,39.27,0,0,0,6,31.53,34,34,0,0,0,3.47,42.78a21.45,21.45,0,0,0,.45,5.48c.34,1.57.85,3.11,1.31,4.66.09.31.16.68.71.72.06-.51.1-1,.17-1.48.13-.89.23-1.79.43-2.67.09-.43.27-.91.93-.94a2.37,2.37,0,0,1,.26.56c.15.79.23,1.6.4,2.39q.63,2.93,1.31,5.82a8.41,8.41,0,0,0,.47,1.17l.19-.06c-.07-.63-.17-1.25-.23-1.89a42,42,0,0,1,0-7.18,39.87,39.87,0,0,1,1.49-8,30.62,30.62,0,0,1,5.3-10.23.86.86,0,0,0,.2-1.11c-.28.13-.54.25-.81.36-1.15.48-2.29,1-3.45,1.41-.51.2-1.09.34-1.44-.22s.11-1,.44-1.3C13,28.73,14.47,27.13,16,25.67a28.71,28.71,0,0,1,3.42-2.59,3.51,3.51,0,0,1,2.11-.69c.24,1-.66,1.6-.74,2.49a3.22,3.22,0,0,0,1.54-.48,13.67,13.67,0,0,1,1.38-.55c.16-.05.37.06.74.14-1,1.28-1.88,2.43-2.8,3.56s-1.84,2.19-2.76,3.29c.91-.61,1.74-1.31,2.6-2q2.88-2.23,5.79-4.43a7,7,0,0,1,1.48-.78c.32-.13.72-.3,1.05.19L27.58,29a.8.8,0,0,0,.55-.22c.82-.72,1.62-1.47,2.46-2.17A25.47,25.47,0,0,1,37,22.14c.55-.23.55-.43.21-.91-1.16-1.63-2.34-3.23-3.43-4.9A11.21,11.21,0,0,1,31.88,11.47Z" fill="#ce8129"/><path d="M51.88,62.87c-.23.5-.37.81-.5,1.12a1.58,1.58,0,0,0,.41,1.91A103.29,103.29,0,0,0,61.93,75a12.18,12.18,0,0,1,3.87,5.52c.08.22.19.43.38.87a6.87,6.87,0,0,0,.42-1,9.65,9.65,0,0,0,.08-3.71c-.13-.9-.31-1.78-.42-2.68-.05-.37-.17-.81.38-1.15a9.54,9.54,0,0,0,1,.91,8.73,8.73,0,0,1,3.11,4.44,17.94,17.94,0,0,1,.9,7.45c0,.45-.15.94.35,1.31a4.36,4.36,0,0,0,1.17-1.78,15.41,15.41,0,0,0,.56-7,17.79,17.79,0,0,0-4.94-10c-1.62-1.67-3.47-3.13-5.22-4.68S60,60.49,58.25,58.86a11.31,11.31,0,0,1-1.84-2.45A3.46,3.46,0,0,1,56,54.62c0-1.14.27-2.28.39-3.42a15.68,15.68,0,0,0-.83-7,5.74,5.74,0,0,0-4.81-3.91,1.35,1.35,0,0,0-1.09.22c0,.08,0,.12,0,.14l.41.73a7.4,7.4,0,0,1,1.12,4.54c-.13,1.52-.29,3-.3,4.57,0,1.8,0,3.61.18,5.41a8.52,8.52,0,0,0,.9,3.32c.67,1.32,1.26,2.7,1.85,4.07a4.58,4.58,0,0,1,.15,1Z" fill="#ce8129"/><path d="M52,5.31a1.44,1.44,0,0,1,1.57.59,4.46,4.46,0,0,1,1.2,2.87c0,.23.24.63.38.63A1.14,1.14,0,0,0,55.86,9a2.39,2.39,0,0,0,.41-.83,3.68,3.68,0,0,0-.4-3.15A8.88,8.88,0,0,0,49.7.33a17,17,0,0,0-6-.12,33.38,33.38,0,0,0-7.4,1.89c-1.47.58-3,1.12-4.45,1.69A3.48,3.48,0,0,1,29.89,4a7.74,7.74,0,0,0-1.67-.07.76.76,0,0,0-.57.31c-.13.31.09.55.39.64a4.83,4.83,0,0,0,1,.2,19.79,19.79,0,0,0,6.07-.84,19.62,19.62,0,0,1,7.39-.64A7.82,7.82,0,0,1,46.6,5.19a3.35,3.35,0,0,1,.42.57h-.89a4.62,4.62,0,0,1-.65,0,23.76,23.76,0,0,0-6.79.13c-1.21.15-2.4.38-3.61.47-1.49.12-3,.12-4.48.2a14.3,14.3,0,0,1-2.78,0,15.52,15.52,0,0,1-9.21-4.71c-.14-.15-.3-.29-.56-.54A2.87,2.87,0,0,0,18.67,3a14.4,14.4,0,0,0,6.1,5.24,15.33,15.33,0,0,0,8.3,1.27A32.55,32.55,0,0,1,38,9.18c.59,0,1.18.13,1.76.17a11.22,11.22,0,0,1,7.11,3.12c.78.72,1.56,1.44,2.35,2.15a2.06,2.06,0,0,0,1.32.66,5.36,5.36,0,0,0-.2-1.24c-.36-.85-.8-1.68-1.22-2.51-.13-.24-.33-.46-.45-.71-.24-.56.06-1,.67-.82a6.19,6.19,0,0,1,1.13.42c1.15.54,2.3,1.09,3.46,1.62a1.89,1.89,0,0,0,.52.08c-.51-1.15-1-2.21-1.46-3.31A9.56,9.56,0,0,1,52,5.31Z" fill="#ce8129"/><path d="M60.45,18.74l-.07.19a6.11,6.11,0,0,0,.67.35c1.25.47,2.49,1,3.75,1.4a3.72,3.72,0,0,1,1.92,1.4c.38.53.76,1.07,1.15,1.59.16.2.33.48.73.26-.14-.5-.28-1-.41-1.5a2.78,2.78,0,0,1,.68-2.68c.12-.14.27-.27.38-.41.21-.3.23-.57-.11-.79a.33.33,0,0,0-.1,0l-.67.34a6.17,6.17,0,0,1-4.93.62c-.82-.29-1.67-.48-2.51-.71A3.7,3.7,0,0,0,60.45,18.74Z" fill="#ce8129"/><path d="M82.76,30.37a8.09,8.09,0,0,0-7-4A17.21,17.21,0,0,1,82.76,30.37Z" fill="#ce8129"/><path d="M72.44,28.42c1.11.3,2.51.59,3.85,1s2.6,1.06,4,1.66C78.83,29.44,75.33,28.32,72.44,28.42Z" fill="#ce8129"/><path d="M79.86,34.24c-.43-1.59-2.1-2.63-4.33-2.65A7.59,7.59,0,0,1,79.86,34.24Z" fill="#ce8129"/><path d="M59.32,79.43a25.23,25.23,0,0,1-5.53-2.27,29.46,29.46,0,0,1-9.5-7.75,18,18,0,0,1-2.88-5c-.6-1.67-1.32-3.3-2-4.93a8.94,8.94,0,0,0-.57-1,1,1,0,0,0-.53.82,10.46,10.46,0,0,0,.29,4.72,29.56,29.56,0,0,0,2.28,6.31c.16.34.29.69.42,1,0,.08,0,.18,0,.37a23.66,23.66,0,0,1-4.59-5.48,3.33,3.33,0,0,0-.14.76,10.89,10.89,0,0,0,1.61,4.25,35.46,35.46,0,0,0,6,7.25,19,19,0,0,1,2.06,2.21.89.89,0,0,1-.28-.07A33.12,33.12,0,0,1,32.21,68.75a22.49,22.49,0,0,1-3.28-9.16,26.59,26.59,0,0,1,1.56-12.4,37.25,37.25,0,0,1,6.89-12q2.13-2.47,4.12-5.09a12.16,12.16,0,0,0,2.43-4.79,5.08,5.08,0,0,0-1.13-4.54,19.74,19.74,0,0,0-1.55-1.48l-.83-.77,1.1-.19c.59-.12.71-.44.34-.92s-.76-.64-.72-1.34a5.52,5.52,0,0,0,1.09.33,1,1,0,0,0,.74-.2c.27-.26,0-.53-.19-.72a3.06,3.06,0,0,0-.73-.57c-1.27-.6-2.54-1.17-3.82-1.73a1.5,1.5,0,0,0-.56-.09c-.72-.05-1.1.3-.94,1a22.27,22.27,0,0,0,1,3.2A18.39,18.39,0,0,0,39,19.47c.13.23.24.47.39.78a1.08,1.08,0,0,1-1-.29,11.12,11.12,0,0,1-4.51-7.78,1.44,1.44,0,0,1,1.56-1.74,16,16,0,0,1,6.39,1.16A26.63,26.63,0,0,1,52,19.1c.39.44.38.45.21,1.15l-.92-.43c-.22-.11-.43-.25-.66-.34-.84-.36-1.28,0-1.16.85,0,.44.16.86.21,1.29a6.6,6.6,0,0,1,0,.93c-.32-.22-.5-.32-.66-.45s-.39-.41-.61-.58-.64-.64-1.06-.37-.1.74,0,1.09a10.48,10.48,0,0,1,.33,5.89,17.93,17.93,0,0,1-1.34,3.28A37.56,37.56,0,0,1,41,39.61c-.43.5-.81,1-1.19,1.56a1.23,1.23,0,0,0-.29.58.83.83,0,0,0,.22.64.73.73,0,0,0,.67,0c.36-.24.64-.6,1-.87a40.14,40.14,0,0,0,5.2-5,17.62,17.62,0,0,0,1.68-2.35,11.81,11.81,0,0,0,.74-2c.06-.16.14-.32.24-.53A1.05,1.05,0,0,1,49.67,33a27.77,27.77,0,0,1-1.07,3.27,40.72,40.72,0,0,1-5.31,8.35,9,9,0,0,0-1.76,5.49c0,1.11.42,1.61,1.54,1.87.08-.35.19-.7.25-1A11.81,11.81,0,0,1,46,44.8,7,7,0,0,1,48.23,43a2.21,2.21,0,0,1,.11,1.64,23.52,23.52,0,0,1-.78,2.88,27,27,0,0,0-1.33,6c-.22,1.69-.32,3.41-.4,5.12a14.27,14.27,0,0,0,2,7.94,50.75,50.75,0,0,0,4.58,6.94,16.12,16.12,0,0,0,4.43,3.83A7.11,7.11,0,0,1,59.32,79.43Z" fill="#ce8129"/><path d="M12.33,50.15l-1,1.68a4.66,4.66,0,0,1-.22-.72,10.62,10.62,0,0,1,.47-3.88A48.45,48.45,0,0,1,16.06,37a13.16,13.16,0,0,1,2.16-2.57q3.09-3.19,6.25-6.32A2.55,2.55,0,0,1,26,27.13c.24.41-.05.69-.17,1-.8,1.89-1.63,3.77-2.41,5.68-.3.74-.49,1.54-.73,2.31a1.35,1.35,0,0,0-.09.55c.05.26.1.6.27.73.32.24.57-.07.78-.3,1.52-1.74,3-3.5,4.56-5.21A62.16,62.16,0,0,1,35,25.19a9.22,9.22,0,0,1,1.23-.84,5.65,5.65,0,0,1,1-.35,4.46,4.46,0,0,1-.21.72c-.29.63-.61,1.23-.88,1.86a.61.61,0,0,0,0,.58.71.71,0,0,0,.59,0,3.4,3.4,0,0,0,.61-.43c.87-.6,1.73-1.22,2.62-1.8a1.76,1.76,0,0,1,1.37-.4C37.67,29.82,33.61,34.79,31,41l-.74-2c-.33.36-.57.58-.76.84a21.19,21.19,0,0,0-3.33,7.37,29.68,29.68,0,0,0-.44,11.5,32.57,32.57,0,0,0,7.87,16.76c1.72,2,3.4,4.07,5.09,6.11.2.24.35.52.55.76,1.34,1.58,1.24,3.45,1.09,5.33,0,.12-.09.23-.19.46-.15-.28-.26-.48-.36-.69-.46-1-.89-1.92-1.4-2.85a8.43,8.43,0,0,0-2.59-2.89c-1.83-1.3-3.56-2.73-5.37-4.06-1-.71-2-1.32-3.07-2A26.47,26.47,0,0,1,20.7,69.8a12.2,12.2,0,0,1-1.95-3.6A56.29,56.29,0,0,1,16.69,60c0-.11-.12-.2-.28-.44a6.24,6.24,0,0,0-.36.78,14.32,14.32,0,0,0-.44,4.07,20.51,20.51,0,0,0,1.86,8.23,1.91,1.91,0,0,1,.14,1.64c-.49,0-.7-.4-.92-.73a29.9,29.9,0,0,1-4.25-10.31,22.16,22.16,0,0,1-.36-5.86c.08-1.36.32-2.72.44-4.08.09-1,.1-2,.14-3Z" fill="#ce8129"/><path d="M31.88,11.47a11.21,11.21,0,0,0,1.93,4.86c1.09,1.67,2.27,3.27,3.43,4.9.34.48.34.68-.21.91a25.47,25.47,0,0,0-6.44,4.43c-.84.7-1.64,1.45-2.46,2.17a.8.8,0,0,1-.55.22l2.27-5.12c-.33-.49-.73-.32-1.05-.19a7,7,0,0,0-1.48.78q-2.91,2.19-5.79,4.43c-.86.67-1.69,1.37-2.6,2,.92-1.1,1.86-2.18,2.76-3.29s1.8-2.28,2.8-3.56c-.37-.08-.58-.19-.74-.14a13.67,13.67,0,0,0-1.38.55,3.22,3.22,0,0,1-1.54.48c.08-.89,1-1.51.74-2.49a3.51,3.51,0,0,0-2.11.69A28.71,28.71,0,0,0,16,25.67c-1.57,1.46-3,3.06-4.49,4.63-.33.35-.77.77-.44,1.3s.93.42,1.44.22c1.16-.45,2.3-.93,3.45-1.41.27-.11.53-.23.81-.36a.86.86,0,0,1-.2,1.11,30.62,30.62,0,0,0-5.3,10.23,39.87,39.87,0,0,0-1.49,8,42,42,0,0,0,0,7.18c.06.64.16,1.26.23,1.89l-.19.06a8.41,8.41,0,0,1-.47-1.17q-.67-2.9-1.31-5.82c-.17-.79-.25-1.6-.4-2.39a2.37,2.37,0,0,0-.26-.56c-.66,0-.84.51-.93.94-.2.88-.3,1.78-.43,2.67-.07.48-.11,1-.17,1.48-.55,0-.62-.41-.71-.72-.46-1.55-1-3.09-1.31-4.66a21.45,21.45,0,0,1-.45-5.48A34,34,0,0,1,6,31.53a39.27,39.27,0,0,1,3.45-6.62c.15-.23.28-.48.47-.81a30.14,30.14,0,0,0-2.75-1.25,13.43,13.43,0,0,1-7-6.16A1,1,0,0,1,0,16c.19.13.38.24.56.37a13.92,13.92,0,0,0,6.87,2.9A13,13,0,0,0,14.87,18c2.71-1.26,5.38-2.6,8.07-3.91a29.16,29.16,0,0,1,6.46-2.39A4.77,4.77,0,0,1,31.88,11.47Z" fill="#ce8129"/><path d="M51.88,62.87l2,1.39a4.58,4.58,0,0,0-.15-1c-.59-1.37-1.18-2.75-1.85-4.07a8.52,8.52,0,0,1-.9-3.32c-.13-1.8-.2-3.61-.18-5.41,0-1.52.17-3,.3-4.57A7.4,7.4,0,0,0,50,41.39l-.41-.73s0-.06,0-.14a1.35,1.35,0,0,1,1.09-.22,5.74,5.74,0,0,1,4.81,3.91,15.68,15.68,0,0,1,.83,7c-.12,1.14-.35,2.28-.39,3.42a3.46,3.46,0,0,0,.43,1.79,11.31,11.31,0,0,0,1.84,2.45C60,60.49,61.79,62,63.56,63.58s3.6,3,5.22,4.68a17.79,17.79,0,0,1,4.94,10,15.41,15.41,0,0,1-.56,7A4.36,4.36,0,0,1,72,87c-.5-.37-.39-.86-.35-1.31a17.94,17.94,0,0,0-.9-7.45,8.73,8.73,0,0,0-3.11-4.44,9.54,9.54,0,0,1-1-.91c-.55.34-.43.78-.38,1.15.11.9.29,1.78.42,2.68a9.65,9.65,0,0,1-.08,3.71,6.87,6.87,0,0,1-.42,1c-.19-.44-.3-.65-.38-.87A12.18,12.18,0,0,0,61.93,75,103.29,103.29,0,0,1,51.79,65.9,1.58,1.58,0,0,1,51.38,64C51.51,63.68,51.65,63.37,51.88,62.87Z" fill="#ce8129"/><path d="M52,5.31a9.56,9.56,0,0,0,1,3.5c.43,1.1.95,2.16,1.46,3.31a1.89,1.89,0,0,1-.52-.08c-1.16-.53-2.31-1.08-3.46-1.62A6.19,6.19,0,0,0,49.34,10c-.61-.13-.91.26-.67.82.12.25.32.47.45.71.42.83.86,1.66,1.22,2.51a5.36,5.36,0,0,1,.2,1.24,2.06,2.06,0,0,1-1.32-.66c-.79-.71-1.57-1.43-2.35-2.15a11.22,11.22,0,0,0-7.11-3.12c-.58,0-1.17-.13-1.76-.17a32.55,32.55,0,0,0-4.93.3,15.33,15.33,0,0,1-8.3-1.27A14.4,14.4,0,0,1,18.67,3a2.87,2.87,0,0,1-.62-1.67c.26.25.42.39.56.54a15.52,15.52,0,0,0,9.21,4.71,14.3,14.3,0,0,0,2.78,0c1.49-.08,3-.08,4.48-.2,1.21-.09,2.4-.32,3.61-.47a23.76,23.76,0,0,1,6.79-.13,4.62,4.62,0,0,0,.65,0H47a3.35,3.35,0,0,0-.42-.57,7.82,7.82,0,0,0-4.11-1.62,19.62,19.62,0,0,0-7.39.64A19.79,19.79,0,0,1,29,5.05a4.83,4.83,0,0,1-1-.2c-.3-.09-.52-.33-.39-.64a.76.76,0,0,1,.57-.31A7.74,7.74,0,0,1,29.89,4a3.48,3.48,0,0,0,1.92-.18c1.48-.57,3-1.11,4.45-1.69A33.38,33.38,0,0,1,43.66.21a17,17,0,0,1,6,.12,8.88,8.88,0,0,1,6.17,4.73,3.68,3.68,0,0,1,.4,3.15,2.39,2.39,0,0,1-.41.83,1.14,1.14,0,0,1-.76.36c-.14,0-.36-.4-.38-.63a4.46,4.46,0,0,0-1.2-2.87A1.44,1.44,0,0,0,52,5.31Z" fill="#ce8129"/><path d="M60.45,18.74a3.7,3.7,0,0,1,.48.06c.84.23,1.69.42,2.51.71a6.17,6.17,0,0,0,4.93-.62l.67-.34a.33.33,0,0,1,.1,0c.34.22.32.49.11.79-.11.14-.26.27-.38.41a2.78,2.78,0,0,0-.68,2.68c.13.5.27,1,.41,1.5-.4.22-.57-.06-.73-.26-.39-.52-.77-1.06-1.15-1.59a3.72,3.72,0,0,0-1.92-1.4c-1.26-.42-2.5-.93-3.75-1.4a6.11,6.11,0,0,1-.67-.35Z" fill="#ce8129"/><path d="M82.76,30.37a17.21,17.21,0,0,0-7-4A8.09,8.09,0,0,1,82.76,30.37Z" fill="#ce8129"/><path d="M72.44,28.42c2.89-.1,6.39,1,7.88,2.71-1.43-.6-2.7-1.21-4-1.66S73.55,28.72,72.44,28.42Z" fill="#ce8129"/><path d="M79.86,34.24a7.59,7.59,0,0,0-4.33-2.65C77.76,31.61,79.43,32.65,79.86,34.24Z" fill="#ce8129"/><path d="M89.73,24.83c-.31-.46-.57-1-.84-1.45A7.59,7.59,0,0,0,87.08,21a2.49,2.49,0,0,0-1.79-.66A12.43,12.43,0,0,1,79.08,19l-1.5-.76a13.25,13.25,0,0,0-4.24-1.41,2.94,2.94,0,0,1-2.28-1.21,2.51,2.51,0,0,0-.47-.45c-3.53-3.11-7.74-4.25-12.34-4.3a1,1,0,0,0-.46,0c-.14.08-.33.25-.32.37s.2.28.35.35a1.43,1.43,0,0,0,.47,0,21.08,21.08,0,0,1,6.2,1.18A9.46,9.46,0,0,1,70,17.3a1.68,1.68,0,0,0,.76.62,4.62,4.62,0,0,0,1,.24c1.6.38,3.23.69,4.8,1.15a54.89,54.89,0,0,0,7.79,1.88,4.89,4.89,0,0,1,3.39,2.27,1.79,1.79,0,0,1,.31.67c.13.67-.35,1.06-1,.83-.23-.08-.45-.2-.69-.26a1.55,1.55,0,0,0-2,.85c.38.23.79.44,1.16.71A7.23,7.23,0,0,1,87,27.47a4.8,4.8,0,0,1,.65,5.19,13.37,13.37,0,0,1-5.39,5.92,2.38,2.38,0,0,1-.51.24,1.08,1.08,0,0,1-1.32-.42,3.07,3.07,0,0,1-.39-.84,1.07,1.07,0,0,0-1.21-.9,11.88,11.88,0,0,1-1.58,0,9.55,9.55,0,0,1-4.67-1.74,2.77,2.77,0,0,1-1.11-1.66,7.67,7.67,0,0,0-.6-1.66,1.16,1.16,0,0,0-1.2-.73,6.19,6.19,0,0,1-4.41-1.47c-1.05-.78-2-1.71-3-2.57l-.52-.42a.45.45,0,0,0-.18.7,10.53,10.53,0,0,0,.89,1.53c.85,1.11,1.76,2.18,2.64,3.28.22.27.57.48.54.9a3.41,3.41,0,0,1-2,.26,17.05,17.05,0,0,1-6.3-1.9c-2-1.12-4.07-2.27-6.16-3.44a3.26,3.26,0,0,0,.68,1.47,28.57,28.57,0,0,0,1.85,2.24,27.19,27.19,0,0,0,4.62,3.79,7.08,7.08,0,0,1,.71.65,2,2,0,0,1-1.58.76,13.23,13.23,0,0,0-5.59,1.65,5,5,0,0,0-.61.46,3.83,3.83,0,0,0,.84.38,24.34,24.34,0,0,0,2.68.38,3.94,3.94,0,0,1,3.42,2.59,12.78,12.78,0,0,1,.53,3.3,24,24,0,0,1-.19,5.22,5.4,5.4,0,0,0,0,1.39,13.71,13.71,0,0,0,1.63,4.85,16.56,16.56,0,0,0,7.77,6.76,6.46,6.46,0,0,1,.83.42,16.63,16.63,0,0,1,6.78,8.68,21.41,21.41,0,0,1,1,9,22.44,22.44,0,0,1-2,7.73c-.43.9-.88,1.79-1.32,2.69l-.75,1.47a25.68,25.68,0,0,0,5.85-7.18A21.47,21.47,0,0,0,80.64,71.1c-.36-1.6-1-3.14-1.47-4.71-.12-.37-.38-.73,0-1.15,1.73.57,2.78,2.17,4.54,2.92a5.79,5.79,0,0,0,.1-1A7.25,7.25,0,0,0,81.1,62,19.82,19.82,0,0,0,76,59c-2-.85-4-1.65-6.06-2.46a28,28,0,0,1-6.42-3.6,4.23,4.23,0,0,1-.93-.91,1.06,1.06,0,0,1,.31-1.68,2.17,2.17,0,0,1,.77-.32,12.69,12.69,0,0,1,2-.27,6.17,6.17,0,0,1,4.22,1.21,8.49,8.49,0,0,1,.82.91c-.46.23-.79.39-1.12.57s-.71.32-.58.73c.08.24.42.4.66.58a.72.72,0,0,0,.26.08,10.86,10.86,0,0,0,5.63.21c3-.74,4.7-2.74,5.72-5.52A2.73,2.73,0,0,0,81,45.85a4,4,0,0,0-2.11-1.75,3.71,3.71,0,0,0-2.88.4,5.83,5.83,0,0,1-3.07.61,3.23,3.23,0,0,1-3-4,21.34,21.34,0,0,1,1-2.7,2.49,2.49,0,0,1,3.81-1.11,3.89,3.89,0,0,0,3,.58,1.08,1.08,0,0,1,1.39.8A7.8,7.8,0,0,1,79.45,40c.13.86.43,1.07,1.26.78a10.27,10.27,0,0,0,3-1.53,18.69,18.69,0,0,0,4.43-4.53A5.59,5.59,0,0,0,89,32.32c.1-1.06.17-2.11.25-3.17a1.43,1.43,0,0,0,0-.46,3.51,3.51,0,0,1,.37-2.53A1.27,1.27,0,0,0,89.73,24.83ZM73.37,47.26l-.72-.86a3.8,3.8,0,0,1,.62-.35c1.31-.39,2.62-.8,3.94-1.13a2.46,2.46,0,0,1,1.26.07c.64.19,1.26.56,1.32,1.29a1.7,1.7,0,0,1-1,1.67,15.13,15.13,0,0,1-2.6,1,8.23,8.23,0,0,1-5-.33,3.47,3.47,0,0,1-.59-.27,2.47,2.47,0,0,1-.39-.36C71.27,47.34,72.35,47.6,73.37,47.26Z" fill="#ce8129"/></svg>