<svg id="b93f65fa-0212-4e5b-b08f-6022fec929c4" data-name="Layer 1" xmlns="http://www.w3.org/2000/svg" viewBox="0 0 296.53 93.63"><title>logo-large</title><path d="M61.93,82A7,7,0,0,0,59.46,80,16.1,16.1,0,0,1,55,76.12a49.56,49.56,0,0,1-4.58-6.94,14.25,14.25,0,0,1-2-7.94c.08-1.71.18-3.42.4-5.12a27.4,27.4,0,0,1,1.33-6A24,24,0,0,0,51,47.24a2.2,2.2,0,0,0-.1-1.64,6.79,6.79,0,0,0-2.27,1.78,11.84,11.84,0,0,0-2.65,6.09c0,.35-.17.7-.25,1.05-1.12-.26-1.58-.75-1.54-1.86a9,9,0,0,1,1.76-5.5,40.65,40.65,0,0,0,5.31-8.34,25.12,25.12,0,0,0,1.07-3.28,1.05,1.05,0,0,0-.47-1.33c-.09.22-.18.37-.24.53a11.81,11.81,0,0,1-.74,2,17.62,17.62,0,0,1-1.68,2.35,39.48,39.48,0,0,1-5.2,5,11.37,11.37,0,0,1-1,.87.73.73,0,0,1-.67,0,.87.87,0,0,1-.22-.65,1.15,1.15,0,0,1,.29-.57c.38-.53.77-1.07,1.19-1.56A37.39,37.39,0,0,0,48.92,34a18.13,18.13,0,0,0,1.34-3.27,10.47,10.47,0,0,0-.33-5.89c-.12-.36-.47-.8,0-1.1s.75.14,1.06.38.4.39.61.57.34.23.66.45a6.55,6.55,0,0,0,0-.93c0-.43-.16-.85-.21-1.28-.12-.89.33-1.21,1.17-.86.22.09.43.24.66.35l.92.42c.16-.7.17-.7-.21-1.15a26.71,26.71,0,0,0-10.25-7.49A15.85,15.85,0,0,0,38,13a1.45,1.45,0,0,0-1.57,1.74,11.2,11.2,0,0,0,4.51,7.79,1.06,1.06,0,0,0,1,.28c-.15-.3-.26-.55-.39-.78a17.64,17.64,0,0,1-1.25-2.19,23.19,23.19,0,0,1-1-3.2c-.16-.71.23-1.06.95-1a1.71,1.71,0,0,1,.55.09c1.28.56,2.56,1.13,3.82,1.73a2.71,2.71,0,0,1,.73.58c.19.19.46.45.19.71a1,1,0,0,1-.74.21,6.28,6.28,0,0,1-1.09-.33c0,.69.43,1,.72,1.34s.25.8-.34.91l-1.1.19.83.77a18.18,18.18,0,0,1,1.55,1.49,5,5,0,0,1,1.13,4.53,12.27,12.27,0,0,1-2.43,4.8c-1.33,1.73-2.7,3.43-4.12,5.08a37.22,37.22,0,0,0-6.88,12,26.48,26.48,0,0,0-1.57,12.4,22.38,22.38,0,0,0,3.28,9.16,33.21,33.21,0,0,0,13.72,12,1.27,1.27,0,0,0,.28.06,19.68,19.68,0,0,0-2.06-2.2,35.79,35.79,0,0,1-6-7.26,11,11,0,0,1-1.61-4.25,3.42,3.42,0,0,1,.14-.76,23.45,23.45,0,0,0,4.59,5.48c0-.19.07-.29,0-.36-.13-.35-.26-.7-.42-1a29.56,29.56,0,0,1-2.28-6.31,10.42,10.42,0,0,1-.29-4.71,1,1,0,0,1,.53-.82,6.45,6.45,0,0,1,.57,1c.69,1.64,1.4,3.26,2,4.93a17.9,17.9,0,0,0,2.88,5,29.33,29.33,0,0,0,9.5,7.75A25.26,25.26,0,0,0,61.93,82Z" transform="translate(-2.61 -2.58)" fill="#ce8129"/><path d="M14.94,52.73l.33.1c0,1,0,2-.14,3.06-.12,1.36-.36,2.71-.44,4.08a22.18,22.18,0,0,0,.36,5.86,29.86,29.86,0,0,0,4.25,10.3c.22.33.43.68.92.74a1.91,1.91,0,0,0-.14-1.64A20.56,20.56,0,0,1,18.22,67a14.32,14.32,0,0,1,.44-4.07,7.92,7.92,0,0,1,.36-.78,2.35,2.35,0,0,1,.29.44,55.55,55.55,0,0,0,2.05,6.2,12.31,12.31,0,0,0,1.95,3.6A26.52,26.52,0,0,0,30,78.22c1,.65,2.08,1.26,3.06,2,1.81,1.32,3.54,2.75,5.37,4A8.37,8.37,0,0,1,41,87.15c.51.93.94,1.9,1.4,2.85.1.2.21.4.36.68a2.3,2.3,0,0,0,.2-.45c.14-1.88.24-3.76-1.1-5.34-.2-.23-.35-.52-.55-.76-1.69-2-3.36-4.09-5.08-6.11a32.5,32.5,0,0,1-7.88-16.76,29.88,29.88,0,0,1,.44-11.5A21.06,21.06,0,0,1,32.1,42.4c.19-.26.43-.48.76-.85l.74,2C36.22,37.38,40.28,32.4,44,27.11a1.77,1.77,0,0,0-1.37.41c-.89.57-1.75,1.19-2.62,1.8a4,4,0,0,1-.61.43.71.71,0,0,1-.59,0c-.11-.09-.11-.41,0-.58.27-.63.59-1.23.88-1.85a4.79,4.79,0,0,0,.22-.73,5.88,5.88,0,0,0-1,.35,10.38,10.38,0,0,0-1.24.84,62.25,62.25,0,0,0-6.8,6.69c-1.55,1.7-3,3.46-4.56,5.2-.21.23-.45.54-.78.3-.17-.13-.22-.47-.27-.73a1.55,1.55,0,0,1,.09-.55c.24-.77.43-1.56.73-2.31.78-1.9,1.61-3.78,2.41-5.68.12-.29.41-.57.17-1a2.64,2.64,0,0,0-1.54.95Q23.92,33.8,20.83,37a13.46,13.46,0,0,0-2.16,2.57,48.53,48.53,0,0,0-4.46,10.27,10.56,10.56,0,0,0-.47,3.87,4.35,4.35,0,0,0,.22.72Z" transform="translate(-2.61 -2.58)" fill="#ce8129"/><path d="M34.49,14.05a5,5,0,0,0-2.48.2,29.86,29.86,0,0,0-6.46,2.39c-2.69,1.31-5.36,2.66-8.07,3.91a13.1,13.1,0,0,1-7.43,1.31A13.92,13.92,0,0,1,3.18,19a5.42,5.42,0,0,0-.56-.37,1.07,1.07,0,0,0,.13.68,13.37,13.37,0,0,0,7,6.16c.92.32,1.79.81,2.74,1.25-.19.33-.32.58-.47.81a39.27,39.27,0,0,0-3.45,6.62A34,34,0,0,0,6.08,45.36a21.45,21.45,0,0,0,.45,5.48c.34,1.58.85,3.12,1.31,4.67.09.3.16.68.71.71.06-.51.1-1,.17-1.48.13-.89.23-1.79.43-2.67.09-.43.27-.91.94-.94a2.81,2.81,0,0,1,.25.56c.15.8.24,1.6.4,2.39q.63,2.93,1.31,5.83a8.28,8.28,0,0,0,.47,1.16l.2,0c-.08-.63-.18-1.26-.24-1.89a42.1,42.1,0,0,1-.05-7.19,39.87,39.87,0,0,1,1.49-8,30.67,30.67,0,0,1,5.3-10.22.86.86,0,0,0,.2-1.11l-.81.36c-1.15.47-2.29,1-3.45,1.41-.5.19-1.09.33-1.44-.22s.11-1,.44-1.31c1.48-1.56,2.92-3.16,4.49-4.63a29.08,29.08,0,0,1,3.43-2.59,3.45,3.45,0,0,1,2.1-.68c.25,1-.66,1.59-.74,2.48A3.32,3.32,0,0,0,25,27a11.73,11.73,0,0,1,1.38-.56c.16-.05.37.07.74.14-1,1.28-1.88,2.44-2.8,3.57s-1.84,2.19-2.76,3.28c.91-.61,1.75-1.31,2.61-2C26.07,30,28,28.47,29.93,27a7,7,0,0,1,1.48-.79c.32-.13.73-.3,1.06.19l-2.28,5.12a.79.79,0,0,0,.56-.22c.81-.72,1.61-1.47,2.45-2.16a25.5,25.5,0,0,1,6.44-4.44c.55-.23.55-.42.21-.91-1.16-1.62-2.34-3.23-3.43-4.89A11.3,11.3,0,0,1,34.49,14.05Z" transform="translate(-2.61 -2.58)" fill="#ce8129"/><path d="M54.49,65.45c-.22.51-.37.81-.5,1.12a1.59,1.59,0,0,0,.41,1.92,107.12,107.12,0,0,0,10.14,9.14,12.21,12.21,0,0,1,3.87,5.51c.08.22.19.43.38.87a8.72,8.72,0,0,0,.43-1,9.85,9.85,0,0,0,.07-3.71c-.13-.89-.31-1.78-.42-2.67-.05-.38-.17-.82.38-1.16a9.54,9.54,0,0,0,1,.91,8.71,8.71,0,0,1,3.11,4.45,17.92,17.92,0,0,1,.9,7.45c0,.45-.14.93.36,1.3a4.37,4.37,0,0,0,1.16-1.78,15.27,15.27,0,0,0,.56-7,17.73,17.73,0,0,0-4.94-10c-1.62-1.68-3.47-3.14-5.22-4.69s-3.59-3.09-5.31-4.72A11.15,11.15,0,0,1,59,59a3.45,3.45,0,0,1-.43-1.78c0-1.15.27-2.29.39-3.43a15.48,15.48,0,0,0-.83-7,5.72,5.72,0,0,0-4.8-3.92,1.37,1.37,0,0,0-1.1.22c0,.09,0,.13,0,.15l.41.72a7.44,7.44,0,0,1,1.12,4.55c-.13,1.52-.29,3-.3,4.56,0,1.81,0,3.62.18,5.42a8.48,8.48,0,0,0,.9,3.31c.68,1.33,1.26,2.7,1.86,4.07a5.59,5.59,0,0,1,.14,1Z" transform="translate(-2.61 -2.58)" fill="#ce8129"/><path d="M54.57,7.89a1.43,1.43,0,0,1,1.56.59,4.48,4.48,0,0,1,1.2,2.87c0,.23.24.63.39.64a1.1,1.1,0,0,0,.75-.37,2.39,2.39,0,0,0,.41-.83,3.66,3.66,0,0,0-.4-3.14,8.86,8.86,0,0,0-6.16-4.73,17.1,17.1,0,0,0-6-.13,32.86,32.86,0,0,0-7.4,1.9c-1.47.57-3,1.11-4.45,1.68a3.3,3.3,0,0,1-1.92.18,7.15,7.15,0,0,0-1.67-.06.76.76,0,0,0-.57.31c-.13.3.09.54.39.63a4.24,4.24,0,0,0,1,.2,19.49,19.49,0,0,0,6.07-.84,20,20,0,0,1,7.39-.64,7.88,7.88,0,0,1,4.11,1.62,3.91,3.91,0,0,1,.43.57h-.9a4.62,4.62,0,0,1-.65-.05,23.77,23.77,0,0,0-6.79.13c-1.2.15-2.4.38-3.61.47-1.49.12-3,.13-4.48.2a14.21,14.21,0,0,1-2.77,0,15.52,15.52,0,0,1-9.22-4.71c-.14-.15-.3-.29-.55-.54a2.8,2.8,0,0,0,.61,1.67,14.39,14.39,0,0,0,6.1,5.24,15.35,15.35,0,0,0,8.3,1.28,32.65,32.65,0,0,1,4.93-.31c.59,0,1.18.13,1.77.17a11.37,11.37,0,0,1,7.11,3.12c.77.73,1.55,1.44,2.34,2.16a2.06,2.06,0,0,0,1.33.65,5.85,5.85,0,0,0-.2-1.23c-.37-.86-.81-1.68-1.23-2.51-.13-.25-.33-.46-.44-.72-.25-.55.05-.94.66-.81a5.32,5.32,0,0,1,1.13.42c1.16.53,2.3,1.08,3.46,1.62a1.92,1.92,0,0,0,.52.07c-.51-1.15-1-2.21-1.46-3.3A9.46,9.46,0,0,1,54.57,7.89Z" transform="translate(-2.61 -2.58)" fill="#ce8129"/><path d="M63.06,21.33l-.07.18a7.17,7.17,0,0,0,.67.35c1.25.48,2.49,1,3.75,1.4a3.74,3.74,0,0,1,1.92,1.41c.38.53.76,1.06,1.15,1.58.16.21.33.48.73.26-.13-.5-.28-1-.41-1.5a2.79,2.79,0,0,1,.68-2.68,4.86,4.86,0,0,0,.38-.41c.21-.29.23-.57-.11-.79,0,0-.08,0-.1,0l-.66.33a6.12,6.12,0,0,1-4.94.62c-.82-.28-1.67-.48-2.51-.7A2.52,2.52,0,0,0,63.06,21.33Z" transform="translate(-2.61 -2.58)" fill="#ce8129"/><path d="M85.37,33a8.11,8.11,0,0,0-7-4A17.21,17.21,0,0,1,85.37,33Z" transform="translate(-2.61 -2.58)" fill="#ce8129"/><path d="M75.05,31c1.11.29,2.51.59,3.86,1s2.59,1.07,4,1.67C81.44,32,77.94,30.91,75.05,31Z" transform="translate(-2.61 -2.58)" fill="#ce8129"/><path d="M82.47,36.82c-.43-1.58-2.1-2.63-4.33-2.65A7.64,7.64,0,0,1,82.47,36.82Z" transform="translate(-2.61 -2.58)" fill="#ce8129"/><path d="M61.93,82a25.26,25.26,0,0,1-5.53-2.28A29.33,29.33,0,0,1,46.9,72,17.9,17.9,0,0,1,44,67c-.6-1.67-1.31-3.29-2-4.93a6.45,6.45,0,0,0-.57-1,1,1,0,0,0-.53.82,10.42,10.42,0,0,0,.29,4.71A29.56,29.56,0,0,0,43.49,73c.16.34.29.69.42,1,0,.07,0,.17,0,.36a23.45,23.45,0,0,1-4.59-5.48,3.42,3.42,0,0,0-.14.76,11,11,0,0,0,1.61,4.25,35.79,35.79,0,0,0,6,7.26,19.68,19.68,0,0,1,2.06,2.2,1.27,1.27,0,0,1-.28-.06,33.21,33.21,0,0,1-13.72-12,22.38,22.38,0,0,1-3.28-9.16,26.48,26.48,0,0,1,1.57-12.4,37.22,37.22,0,0,1,6.88-12c1.42-1.65,2.79-3.35,4.12-5.08a12.27,12.27,0,0,0,2.43-4.8,5,5,0,0,0-1.13-4.53,18.18,18.18,0,0,0-1.55-1.49L43,21.08l1.1-.19c.59-.11.71-.43.34-.91s-.76-.65-.72-1.34a6.28,6.28,0,0,0,1.09.33,1,1,0,0,0,.74-.21c.27-.26,0-.52-.19-.71a2.71,2.71,0,0,0-.73-.58c-1.26-.6-2.54-1.17-3.82-1.73a1.71,1.71,0,0,0-.55-.09c-.72-.05-1.11.3-.95,1a23.19,23.19,0,0,0,1,3.2,17.64,17.64,0,0,0,1.25,2.19c.13.23.24.48.39.78a1.06,1.06,0,0,1-1-.28,11.2,11.2,0,0,1-4.51-7.79A1.45,1.45,0,0,1,38,13a15.85,15.85,0,0,1,6.38,1.17,26.71,26.71,0,0,1,10.25,7.49c.38.45.37.45.21,1.15l-.92-.42c-.23-.11-.44-.26-.66-.35-.84-.35-1.29,0-1.17.86,0,.43.17.85.21,1.28a6.55,6.55,0,0,1,0,.93c-.32-.22-.5-.32-.66-.45s-.39-.41-.61-.57-.64-.65-1.06-.38-.1.74,0,1.1a10.47,10.47,0,0,1,.33,5.89A18.13,18.13,0,0,1,48.92,34a37.39,37.39,0,0,1-5.35,8.21c-.42.49-.81,1-1.19,1.56a1.15,1.15,0,0,0-.29.57.87.87,0,0,0,.22.65.73.73,0,0,0,.67,0,11.37,11.37,0,0,0,1-.87,39.48,39.48,0,0,0,5.2-5,17.62,17.62,0,0,0,1.68-2.35,11.81,11.81,0,0,0,.74-2c.06-.16.15-.31.24-.53a1.05,1.05,0,0,1,.47,1.33,25.12,25.12,0,0,1-1.07,3.28,40.65,40.65,0,0,1-5.31,8.34,9,9,0,0,0-1.76,5.5c0,1.11.42,1.6,1.54,1.86.08-.35.2-.7.25-1.05a11.84,11.84,0,0,1,2.65-6.09,6.79,6.79,0,0,1,2.27-1.78,2.2,2.2,0,0,1,.1,1.64,24,24,0,0,1-.78,2.88,27.4,27.4,0,0,0-1.33,6c-.22,1.7-.32,3.41-.4,5.12a14.25,14.25,0,0,0,2,7.94A49.56,49.56,0,0,0,55,76.12,16.1,16.1,0,0,0,59.46,80,7,7,0,0,1,61.93,82Z" transform="translate(-2.61 -2.58)" fill="#ce8129"/><path d="M14.94,52.73l-1,1.68a4.35,4.35,0,0,1-.22-.72,10.56,10.56,0,0,1,.47-3.87,48.53,48.53,0,0,1,4.46-10.27A13.46,13.46,0,0,1,20.83,37q3.09-3.19,6.25-6.32a2.64,2.64,0,0,1,1.54-.95c.24.41-.05.69-.17,1-.8,1.9-1.63,3.78-2.41,5.68-.3.75-.49,1.54-.73,2.31a1.55,1.55,0,0,0-.09.55c.05.26.1.6.27.73.33.24.57-.07.78-.3,1.52-1.74,3-3.5,4.56-5.2a62.25,62.25,0,0,1,6.8-6.69,10.38,10.38,0,0,1,1.24-.84,5.88,5.88,0,0,1,1-.35,4.79,4.79,0,0,1-.22.73c-.29.62-.61,1.22-.88,1.85-.07.17-.07.49,0,.58a.71.71,0,0,0,.59,0,4,4,0,0,0,.61-.43c.87-.61,1.73-1.23,2.62-1.8A1.77,1.77,0,0,1,44,27.11c-3.72,5.29-7.78,10.27-10.4,16.43l-.74-2c-.33.37-.57.59-.76.85a21.06,21.06,0,0,0-3.33,7.36,29.88,29.88,0,0,0-.44,11.5A32.5,32.5,0,0,0,36.21,78c1.72,2,3.39,4.07,5.08,6.11.2.24.35.53.55.76,1.34,1.58,1.24,3.46,1.1,5.34a2.3,2.3,0,0,1-.2.45c-.15-.28-.26-.48-.36-.68-.46-1-.89-1.92-1.4-2.85a8.37,8.37,0,0,0-2.59-2.9c-1.83-1.3-3.56-2.73-5.37-4-1-.72-2-1.33-3.06-2a26.52,26.52,0,0,1-6.65-5.84,12.31,12.31,0,0,1-1.95-3.6,55.55,55.55,0,0,1-2.05-6.2,2.35,2.35,0,0,0-.29-.44,7.92,7.92,0,0,0-.36.78A14.32,14.32,0,0,0,18.22,67a20.56,20.56,0,0,0,1.86,8.24,1.91,1.91,0,0,1,.14,1.64c-.49-.06-.7-.41-.92-.74a29.86,29.86,0,0,1-4.25-10.3A22.18,22.18,0,0,1,14.69,60c.08-1.37.32-2.72.44-4.08.09-1,.1-2,.14-3.06Z" transform="translate(-2.61 -2.58)" fill="#ce8129"/><path d="M34.49,14.05a11.3,11.3,0,0,0,1.93,4.87c1.09,1.66,2.27,3.27,3.43,4.89.34.49.34.68-.21.91a25.5,25.5,0,0,0-6.44,4.44c-.84.69-1.64,1.44-2.45,2.16a.79.79,0,0,1-.56.22l2.28-5.12c-.33-.49-.74-.32-1.06-.19a7,7,0,0,0-1.48.79C28,28.47,26.07,30,24.15,31.45c-.86.66-1.7,1.36-2.61,2,.92-1.09,1.86-2.17,2.76-3.28s1.8-2.29,2.8-3.57c-.37-.07-.58-.19-.74-.14A11.73,11.73,0,0,0,25,27a3.32,3.32,0,0,1-1.54.47c.08-.89,1-1.51.74-2.48a3.45,3.45,0,0,0-2.1.68,29.08,29.08,0,0,0-3.43,2.59c-1.57,1.47-3,3.07-4.49,4.63-.33.35-.77.78-.44,1.31s.94.41,1.44.22c1.16-.45,2.3-.94,3.45-1.41l.81-.36a.86.86,0,0,1-.2,1.11A30.67,30.67,0,0,0,13.92,44a39.87,39.87,0,0,0-1.49,8,42.1,42.1,0,0,0,.05,7.19c.06.63.16,1.26.24,1.89l-.2,0a8.28,8.28,0,0,1-.47-1.16q-.68-2.91-1.31-5.83c-.16-.79-.25-1.59-.4-2.39a2.81,2.81,0,0,0-.25-.56c-.67,0-.85.51-.94.94-.2.88-.3,1.78-.43,2.67-.07.48-.11,1-.17,1.48-.55,0-.62-.41-.71-.71-.46-1.55-1-3.09-1.31-4.67a21.45,21.45,0,0,1-.45-5.48A34,34,0,0,1,8.59,34.11,39.27,39.27,0,0,1,12,27.49c.15-.23.28-.48.47-.81-.95-.44-1.82-.93-2.74-1.25a13.37,13.37,0,0,1-7-6.16,1.07,1.07,0,0,1-.13-.68,5.42,5.42,0,0,1,.56.37,13.92,13.92,0,0,0,6.87,2.9,13.1,13.1,0,0,0,7.43-1.31c2.71-1.25,5.38-2.6,8.07-3.91A29.86,29.86,0,0,1,32,14.25,5,5,0,0,1,34.49,14.05Z" transform="translate(-2.61 -2.58)" fill="#ce8129"/><path d="M54.49,65.45l2,1.39a5.59,5.59,0,0,0-.14-1c-.6-1.37-1.18-2.74-1.86-4.07a8.48,8.48,0,0,1-.9-3.31c-.13-1.8-.2-3.61-.18-5.42,0-1.52.17-3,.3-4.56A7.44,7.44,0,0,0,52.64,44l-.41-.72s0-.06,0-.15a1.37,1.37,0,0,1,1.1-.22,5.72,5.72,0,0,1,4.8,3.92,15.48,15.48,0,0,1,.83,7c-.12,1.14-.35,2.28-.39,3.43A3.45,3.45,0,0,0,59,59a11.15,11.15,0,0,0,1.84,2.45c1.72,1.63,3.54,3.15,5.31,4.72s3.6,3,5.22,4.69a17.73,17.73,0,0,1,4.94,10,15.27,15.27,0,0,1-.56,7,4.37,4.37,0,0,1-1.16,1.78c-.5-.37-.39-.85-.36-1.3a17.92,17.92,0,0,0-.9-7.45,8.71,8.71,0,0,0-3.11-4.45,9.54,9.54,0,0,1-1-.91c-.55.34-.43.78-.38,1.16.11.89.29,1.78.42,2.67A9.85,9.85,0,0,1,69.22,83a8.72,8.72,0,0,1-.43,1c-.19-.44-.3-.65-.38-.87a12.21,12.21,0,0,0-3.87-5.51A107.12,107.12,0,0,1,54.4,68.49,1.59,1.59,0,0,1,54,66.57C54.12,66.26,54.27,66,54.49,65.45Z" transform="translate(-2.61 -2.58)" fill="#ce8129"/><path d="M54.57,7.89a9.46,9.46,0,0,0,1,3.51c.43,1.09.95,2.15,1.46,3.3a1.92,1.92,0,0,1-.52-.07c-1.16-.54-2.3-1.09-3.46-1.62A5.32,5.32,0,0,0,52,12.59c-.61-.13-.91.26-.66.81.11.26.31.47.44.72.42.83.86,1.65,1.23,2.51a5.85,5.85,0,0,1,.2,1.23,2.06,2.06,0,0,1-1.33-.65c-.79-.72-1.57-1.43-2.34-2.16a11.37,11.37,0,0,0-7.11-3.12c-.59,0-1.18-.13-1.77-.17a32.65,32.65,0,0,0-4.93.31,15.35,15.35,0,0,1-8.3-1.28,14.39,14.39,0,0,1-6.1-5.24,2.8,2.8,0,0,1-.61-1.67c.25.25.41.39.55.54a15.52,15.52,0,0,0,9.22,4.71,14.21,14.21,0,0,0,2.77,0c1.5-.07,3-.08,4.48-.2,1.21-.09,2.41-.32,3.61-.47a23.77,23.77,0,0,1,6.79-.13,4.62,4.62,0,0,0,.65.05h.9a3.91,3.91,0,0,0-.43-.57A7.88,7.88,0,0,0,45.1,6.15a20,20,0,0,0-7.39.64,19.49,19.49,0,0,1-6.07.84,4.24,4.24,0,0,1-1-.2c-.3-.09-.52-.33-.39-.63a.76.76,0,0,1,.57-.31,7.15,7.15,0,0,1,1.67.06,3.3,3.3,0,0,0,1.92-.18c1.48-.57,3-1.11,4.45-1.68a32.86,32.86,0,0,1,7.4-1.9,17.1,17.1,0,0,1,6,.13,8.86,8.86,0,0,1,6.16,4.73,3.66,3.66,0,0,1,.4,3.14,2.39,2.39,0,0,1-.41.83,1.1,1.1,0,0,1-.75.37c-.15,0-.37-.41-.39-.64a4.48,4.48,0,0,0-1.2-2.87A1.43,1.43,0,0,0,54.57,7.89Z" transform="translate(-2.61 -2.58)" fill="#ce8129"/><path d="M63.06,21.33a2.52,2.52,0,0,1,.48.06c.84.22,1.69.42,2.51.7A6.12,6.12,0,0,0,71,21.47l.66-.33s.06,0,.1,0c.34.22.32.5.11.79a4.86,4.86,0,0,1-.38.41A2.79,2.79,0,0,0,70.8,25c.13.51.28,1,.41,1.5-.4.22-.57-.05-.73-.26-.39-.52-.77-1.05-1.15-1.58a3.74,3.74,0,0,0-1.92-1.41c-1.26-.42-2.5-.92-3.75-1.4a7.17,7.17,0,0,1-.67-.35Z" transform="translate(-2.61 -2.58)" fill="#ce8129"/><path d="M85.37,33a17.21,17.21,0,0,0-7-4A8.11,8.11,0,0,1,85.37,33Z" transform="translate(-2.61 -2.58)" fill="#ce8129"/><path d="M75.05,31c2.89-.1,6.39,1,7.88,2.71-1.43-.6-2.7-1.22-4-1.67S76.16,31.3,75.05,31Z" transform="translate(-2.61 -2.58)" fill="#ce8129"/><path d="M82.47,36.82a7.64,7.64,0,0,0-4.33-2.65C80.37,34.19,82,35.24,82.47,36.82Z" transform="translate(-2.61 -2.58)" fill="#ce8129"/><path d="M92.34,27.42c-.31-.47-.57-1-.84-1.46a7.59,7.59,0,0,0-1.81-2.36,2.53,2.53,0,0,0-1.79-.66,12.32,12.32,0,0,1-6.21-1.41l-1.5-.76A13.25,13.25,0,0,0,76,19.36a2.94,2.94,0,0,1-2.28-1.21,2.51,2.51,0,0,0-.47-.45c-3.53-3.1-7.74-4.25-12.34-4.3a1,1,0,0,0-.46,0c-.14.08-.33.25-.32.38s.21.28.36.35a1.15,1.15,0,0,0,.46,0,20.78,20.78,0,0,1,6.2,1.19,9.38,9.38,0,0,1,5.51,4.51,1.72,1.72,0,0,0,.76.61,5.32,5.32,0,0,0,1,.25c1.61.37,3.23.68,4.8,1.14A53.56,53.56,0,0,0,87,23.77,5,5,0,0,1,90.34,26a1.94,1.94,0,0,1,.31.67c.13.67-.35,1.06-1,.84a5,5,0,0,0-.7-.26,1.54,1.54,0,0,0-2,.84c.38.23.79.44,1.16.71a7.56,7.56,0,0,1,1.52,1.21,4.81,4.81,0,0,1,.65,5.19,13.39,13.39,0,0,1-5.39,5.93,2.34,2.34,0,0,1-.51.23A1.08,1.08,0,0,1,83.07,41a2.9,2.9,0,0,1-.38-.84,1.07,1.07,0,0,0-1.22-.9,11.87,11.87,0,0,1-1.58,0,9.53,9.53,0,0,1-4.67-1.73,2.76,2.76,0,0,1-1.11-1.67,7.18,7.18,0,0,0-.6-1.66,1.16,1.16,0,0,0-1.2-.73A6.14,6.14,0,0,1,67.9,32c-1.05-.78-2-1.7-3-2.56L64.41,29a.44.44,0,0,0-.18.69,11.53,11.53,0,0,0,.89,1.53c.86,1.12,1.76,2.19,2.64,3.28.22.27.57.48.54.91a3.45,3.45,0,0,1-2,.26A17.25,17.25,0,0,1,60,33.74c-2-1.11-4.07-2.27-6.16-3.44a3.21,3.21,0,0,0,.69,1.48A26.24,26.24,0,0,0,56.32,34a26.72,26.72,0,0,0,4.62,3.79,6.14,6.14,0,0,1,.71.65,2.07,2.07,0,0,1-1.58.77,13.07,13.07,0,0,0-5.59,1.64,5.38,5.38,0,0,0-.61.47,4.16,4.16,0,0,0,.85.38,23.81,23.81,0,0,0,2.67.37,4,4,0,0,1,3.42,2.6A12.77,12.77,0,0,1,61.34,48a24,24,0,0,1-.19,5.22,5.05,5.05,0,0,0,0,1.4,13.52,13.52,0,0,0,1.62,4.84,16.5,16.5,0,0,0,7.77,6.76,6.52,6.52,0,0,1,.83.43,16.59,16.59,0,0,1,6.78,8.68,21.36,21.36,0,0,1,1,9,22.5,22.5,0,0,1-2,7.74c-.43.89-.87,1.79-1.32,2.68-.24.5-.5,1-.75,1.48A25.83,25.83,0,0,0,80.93,89a21.47,21.47,0,0,0,2.32-15.35c-.36-1.61-1-3.15-1.47-4.72-.11-.37-.38-.73,0-1.15,1.73.57,2.78,2.18,4.54,2.92a5.93,5.93,0,0,0,.11-1,7.28,7.28,0,0,0-2.68-5.16,20.37,20.37,0,0,0-5.14-3c-2-.85-4-1.64-6.06-2.46a28.3,28.3,0,0,1-6.42-3.59,4.46,4.46,0,0,1-.93-.91,1.07,1.07,0,0,1,.31-1.69,2.17,2.17,0,0,1,.77-.32,12.69,12.69,0,0,1,2-.27,6.26,6.26,0,0,1,4.22,1.21,9.59,9.59,0,0,1,.82.91L72.21,55c-.3.17-.72.32-.59.73.08.24.43.4.66.58a1.07,1.07,0,0,0,.27.09,10.82,10.82,0,0,0,5.62.2c3-.74,4.7-2.73,5.72-5.52a2.68,2.68,0,0,0-.32-2.63,4,4,0,0,0-2.11-1.76,3.76,3.76,0,0,0-2.88.4,5.73,5.73,0,0,1-3.07.61,3.22,3.22,0,0,1-3-4,20.92,20.92,0,0,1,1-2.71,2.5,2.5,0,0,1,3.81-1.11,3.85,3.85,0,0,0,3,.58,1.09,1.09,0,0,1,1.39.8,7.69,7.69,0,0,1,.32,1.36c.13.85.43,1.06,1.26.77a10.27,10.27,0,0,0,3-1.53,18.51,18.51,0,0,0,4.43-4.53,5.59,5.59,0,0,0,.92-2.42c.11-1,.17-2.11.25-3.17a1.78,1.78,0,0,0,0-.46,3.47,3.47,0,0,1,.36-2.52A1.27,1.27,0,0,0,92.34,27.42ZM76,49.84,75.26,49a4.49,4.49,0,0,1,.62-.36c1.31-.39,2.62-.79,3.94-1.12a2.46,2.46,0,0,1,1.26.06c.64.19,1.26.56,1.32,1.3a1.68,1.68,0,0,1-1,1.66,14.82,14.82,0,0,1-2.6,1,8.3,8.3,0,0,1-5-.32,6.28,6.28,0,0,1-.59-.27,4.75,4.75,0,0,1-.39-.37C73.88,49.92,75,50.18,76,49.84Z" transform="translate(-2.61 -2.58)" fill="#ce8129"/><path d="M147.22,46.91H143V45.38h10.29v1.53H149V59.28h-1.81Z" transform="translate(-2.61 -2.58)" fill="#ce8129"/><path d="M154.33,54.62a3.17,3.17,0,0,0,3.4,3.44,6.44,6.44,0,0,0,2.76-.52l.33,1.3a8.1,8.1,0,0,1-3.34.64,4.66,4.66,0,0,1-4.91-5c0-3,1.8-5.38,4.7-5.38,3.26,0,4.11,2.87,4.11,4.7a4.65,4.65,0,0,1-.06.85Zm5.3-1.3c0-1.16-.48-3-2.5-3-1.86,0-2.64,1.69-2.78,3Z" transform="translate(-2.61 -2.58)" fill="#ce8129"/><path d="M163.62,44.64h1.81V59.28h-1.81Z" transform="translate(-2.61 -2.58)" fill="#ce8129"/><path d="M168.48,44.64h1.82V59.28h-1.82Z" transform="translate(-2.61 -2.58)" fill="#ce8129"/><path d="M179.9,46.91V49.3h2.6v1.38h-2.6V56c0,1.24.35,1.94,1.36,1.94a3.16,3.16,0,0,0,1.05-.13l.08,1.38a4.72,4.72,0,0,1-1.6.25,2.59,2.59,0,0,1-2-.76,3.87,3.87,0,0,1-.7-2.62V50.68h-1.55V49.3h1.55V47.46Z" transform="translate(-2.61 -2.58)" fill="#ce8129"/><path d="M184.54,44.64h1.81v6.22h0a3.25,3.25,0,0,1,1.3-1.27,3.56,3.56,0,0,1,1.86-.52c1.34,0,3.48.83,3.48,4.27v5.94h-1.82V53.52c0-1.6-.59-2.94-2.3-2.94a2.63,2.63,0,0,0-2.44,1.81,2.29,2.29,0,0,0-.12.87v6h-1.81Z" transform="translate(-2.61 -2.58)" fill="#ce8129"/><path d="M197,54.62a3.18,3.18,0,0,0,3.41,3.44,6.48,6.48,0,0,0,2.76-.52l.33,1.3a8.1,8.1,0,0,1-3.34.64,4.66,4.66,0,0,1-4.91-5c0-3,1.8-5.38,4.7-5.38,3.26,0,4.1,2.87,4.1,4.7a4.65,4.65,0,0,1-.06.85Zm5.3-1.3c0-1.16-.47-3-2.49-3-1.86,0-2.64,1.69-2.78,3Z" transform="translate(-2.61 -2.58)" fill="#ce8129"/><path d="M211.39,49.3l1.34,5.05c.27,1.11.53,2.16.72,3.19h.06c.23-1,.56-2.08.89-3.17L216,49.3h1.52l1.55,5c.37,1.17.66,2.24.88,3.25h.07a28.46,28.46,0,0,1,.76-3.23l1.42-5H224l-3.21,10h-1.65l-1.53-4.77c-.35-1.13-.63-2.12-.88-3.3h0a30.21,30.21,0,0,1-.91,3.32l-1.61,4.75h-1.65l-3-10Z" transform="translate(-2.61 -2.58)" fill="#ce8129"/><path d="M229.69,59.5c-2.68,0-4.78-2-4.78-5.13,0-3.34,2.2-5.3,4.94-5.3s4.81,2.08,4.81,5.11c0,3.71-2.58,5.32-4.95,5.32Zm.08-1.36c1.73,0,3-1.63,3-3.89,0-1.7-.84-3.82-3-3.82s-3.05,2-3.05,3.88c0,2.18,1.24,3.83,3,3.83Z" transform="translate(-2.61 -2.58)" fill="#ce8129"/><path d="M236.94,52.41c0-1.17,0-2.18-.08-3.11h1.59l.08,2h.06a3,3,0,0,1,2.78-2.19,3.9,3.9,0,0,1,.5,0v1.71a5.38,5.38,0,0,0-.62,0,2.53,2.53,0,0,0-2.43,2.31,5.85,5.85,0,0,0-.07.85v5.34h-1.81Z" transform="translate(-2.61 -2.58)" fill="#ce8129"/><path d="M243.76,44.64h1.82V59.28h-1.82Z" transform="translate(-2.61 -2.58)" fill="#ce8129"/><path d="M257.24,44.64V56.7c0,.88,0,1.89.08,2.58H255.7l-.09-1.74h0a3.64,3.64,0,0,1-3.38,2c-2.41,0-4.29-2-4.29-5.07,0-3.34,2.06-5.36,4.48-5.36a3.32,3.32,0,0,1,3,1.51h0V44.64Zm-1.81,8.72a3.39,3.39,0,0,0-.08-.78,2.68,2.68,0,0,0-2.62-2.09c-1.88,0-3,1.65-3,3.84s1,3.71,2.95,3.71a2.76,2.76,0,0,0,2.66-2.19,2.91,2.91,0,0,0,.08-.76Z" transform="translate(-2.61 -2.58)" fill="#ce8129"/><path d="M121.36,77l-3.53-13.89h1.9l1.65,7c.41,1.75.78,3.46,1,4.8h0c.22-1.38.66-3,1.13-4.83l1.86-7h1.87L129,70.18c.4,1.67.77,3.29,1,4.76h0c.29-1.53.68-3.07,1.12-4.81l1.83-7h1.84L130.86,77H129l-1.75-7.22a45,45,0,0,1-.91-4.55h0a35.55,35.55,0,0,1-1.07,4.53l-2,7.24Z" transform="translate(-2.61 -2.58)" fill="#664321"/><path d="M136.36,62.38h1.81v6.23h0a3.21,3.21,0,0,1,1.3-1.28,3.56,3.56,0,0,1,1.86-.51c1.34,0,3.48.82,3.48,4.26V77H143V71.27c0-1.61-.6-3-2.31-3a2.64,2.64,0,0,0-2.44,1.81,2.29,2.29,0,0,0-.12.87v6h-1.81Z" transform="translate(-2.61 -2.58)" fill="#664321"/><path d="M148.19,67l2.16,5.9c.25.66.5,1.44.66,2h0c.19-.6.39-1.36.64-2.08l2-5.86h1.92l-2.72,7.11c-1.3,3.43-2.19,5.16-3.43,6.25a5.09,5.09,0,0,1-2.22,1.15l-.46-1.5a4.61,4.61,0,0,0,1.59-.89,5.72,5.72,0,0,0,1.53-2,1.3,1.3,0,0,0,.14-.43,1.25,1.25,0,0,0-.14-.47L146.21,67Z" transform="translate(-2.61 -2.58)" fill="#664321"/><path d="M163.46,63.13V77h-1.82V63.13Z" transform="translate(-2.61 -2.58)" fill="#664321"/><path d="M170.89,62.38h1.82V77h-1.82Z" transform="translate(-2.61 -2.58)" fill="#664321"/><path d="M179.82,77.25c-2.68,0-4.78-2-4.78-5.14,0-3.34,2.2-5.29,4.94-5.29s4.81,2.08,4.81,5.11c0,3.71-2.58,5.32-4.95,5.32Zm.08-1.36c1.73,0,3-1.63,3-3.9,0-1.69-.84-3.81-3-3.81s-3.05,2-3.05,3.87c0,2.19,1.24,3.84,3,3.84Z" transform="translate(-2.61 -2.58)" fill="#664321"/><path d="M187.63,67l2,5.59c.33.93.59,1.75.8,2.58h.06c.23-.83.52-1.65.85-2.58L193.24,67h1.89l-3.91,10h-1.74l-3.79-10Z" transform="translate(-2.61 -2.58)" fill="#664321"/><path d="M197.66,72.36a3.18,3.18,0,0,0,3.41,3.44,6.5,6.5,0,0,0,2.76-.51l.33,1.3a8.1,8.1,0,0,1-3.34.64,4.66,4.66,0,0,1-4.91-5c0-3,1.8-5.38,4.7-5.38,3.26,0,4.1,2.86,4.1,4.7a4.53,4.53,0,0,1-.06.84Zm5.3-1.3c0-1.15-.47-3-2.49-3-1.86,0-2.64,1.69-2.78,3Z" transform="translate(-2.61 -2.58)" fill="#664321"/><path d="M213.18,64.65H209V63.13h10.28v1.52H215V77h-1.82Z" transform="translate(-2.61 -2.58)" fill="#664321"/><path d="M226.43,74.63a17.18,17.18,0,0,0,.15,2.39H225l-.16-1.26h-.07a3.68,3.68,0,0,1-3.05,1.49,2.85,2.85,0,0,1-3-2.87c0-2.41,2.15-3.73,6-3.71v-.21a2,2,0,0,0-2.27-2.3,4.75,4.75,0,0,0-2.61.74l-.42-1.22a6.53,6.53,0,0,1,3.3-.86c3.07,0,3.81,2.08,3.81,4.08Zm-1.77-2.7c-2,0-4.22.31-4.22,2.24a1.59,1.59,0,0,0,1.69,1.74,2.52,2.52,0,0,0,2.45-1.67,2,2,0,0,0,.08-.58Z" transform="translate(-2.61 -2.58)" fill="#664321"/><path d="M229.34,69.74c0-1,0-1.87-.08-2.7h1.6l.11,1.63h0a3.68,3.68,0,0,1,3.3-1.85c1.38,0,3.52.82,3.52,4.24v6H236V71.27c0-1.61-.6-3-2.31-3a2.6,2.6,0,0,0-2.43,1.86,2.43,2.43,0,0,0-.13.84v6h-1.81Z" transform="translate(-2.61 -2.58)" fill="#664321"/><path d="M239.64,76l4.52-5.88c.45-.55.84-1,1.31-1.56v0h-5.42V67h7.61v1.14L243.19,74c-.42.54-.83,1.05-1.28,1.55v0h5.83V77h-8.1Z" transform="translate(-2.61 -2.58)" fill="#664321"/><path d="M256.62,74.63a17.18,17.18,0,0,0,.15,2.39h-1.63L255,75.76h-.07a3.68,3.68,0,0,1-3,1.49,2.85,2.85,0,0,1-3.05-2.87c0-2.41,2.15-3.73,6-3.71v-.21a2,2,0,0,0-2.27-2.3,4.78,4.78,0,0,0-2.62.74l-.41-1.22a6.53,6.53,0,0,1,3.3-.86c3.07,0,3.81,2.08,3.81,4.08Zm-1.77-2.7c-2,0-4.22.31-4.22,2.24a1.59,1.59,0,0,0,1.69,1.74,2.53,2.53,0,0,0,2.45-1.67,2,2,0,0,0,.08-.58Z" transform="translate(-2.61 -2.58)" fill="#664321"/><path d="M259.53,69.74c0-1,0-1.87-.08-2.7h1.6l.11,1.63h0a3.68,3.68,0,0,1,3.3-1.85c1.38,0,3.52.82,3.52,4.24v6h-1.81V71.27c0-1.61-.6-3-2.31-3a2.61,2.61,0,0,0-2.44,1.86,2.7,2.7,0,0,0-.12.84v6h-1.81Z" transform="translate(-2.61 -2.58)" fill="#664321"/><path d="M271.83,65.35a1.07,1.07,0,0,1-1.09-1.11,1.13,1.13,0,1,1,1.11,1.11ZM271,77V67h1.82V77Z" transform="translate(-2.61 -2.58)" fill="#664321"/><path d="M282.82,74.63A17.28,17.28,0,0,0,283,77h-1.63l-.16-1.26h-.07a3.68,3.68,0,0,1-3.05,1.49A2.85,2.85,0,0,1,275,74.38c0-2.41,2.15-3.73,6-3.71v-.21a2,2,0,0,0-2.27-2.3,4.75,4.75,0,0,0-2.61.74l-.42-1.22a6.53,6.53,0,0,1,3.3-.86c3.07,0,3.82,2.08,3.82,4.08ZM281,71.93c-2,0-4.22.31-4.22,2.24a1.59,1.59,0,0,0,1.69,1.74A2.52,2.52,0,0,0,281,74.24a2,2,0,0,0,.08-.58Z" transform="translate(-2.61 -2.58)" fill="#664321"/><path d="M120.8,13.69l-.16.22c.13.12.23.31.38.35.36.09.74.11,1.11.17a2.48,2.48,0,0,1,2.29,2.33,18.39,18.39,0,0,1,.11,2c0,3.31,0,6.61,0,9.92a32.43,32.43,0,0,1-.29,4.29,5.75,5.75,0,0,1-4.42,5,7,7,0,0,1-3.88.07,4.36,4.36,0,0,1-3.49-3.49,11.84,11.84,0,0,1-.2-2.14c0-5.05,0-10.11,0-15.16a6,6,0,0,1,.09-1.12A1.83,1.83,0,0,1,114,14.42c.55-.08,1.11-.11,1.67-.14.31,0,.48-.13.35-.53H102.13c.29.28.39.48.54.51.42.09.86.09,1.29.16a1.9,1.9,0,0,1,1.75,1.88c.06.74.09,1.49.09,2.24,0,4,0,7.93,0,11.89a22,22,0,0,0,.11,2.43,7.07,7.07,0,0,0,3.33,5.66,9.79,9.79,0,0,0,2.92,1.23,18.34,18.34,0,0,0,5.58.26,9.81,9.81,0,0,0,3.85-1.07c2.3-1.27,4-3,4.25-5.78a29.88,29.88,0,0,0,.23-3c0-3.81,0-7.61,0-11.42a14.88,14.88,0,0,1,.08-1.77,2.67,2.67,0,0,1,2.55-2.64c.36-.06.73-.09,1.1-.14.09-.64-.34-.52-.65-.52H120.8Z" transform="translate(-2.61 -2.58)" fill="#72473c"/><path d="M134.5,40.06V38.94c0-2.4,0-4.8,0-7.21s1.16-3.38,3.4-3.44c2.49-.06,5-.09,7.48-.21a5.55,5.55,0,0,0,5-3,8.32,8.32,0,0,0-.34-8.8,5.37,5.37,0,0,0-4.81-2.58c-4.58,0-9.17,0-13.76,0h-1v4.11H143c.38,0,.75,0,1.13,0a2.82,2.82,0,0,1,3,3c0,.15,0,.31,0,.47a2.35,2.35,0,0,1-2.61,2.51c-2.52.06-5,.11-7.57.18a7.16,7.16,0,0,0-3.56,1,5.5,5.5,0,0,0-3,4.88c0,3.15,0,6.3,0,9.45a4.57,4.57,0,0,0,.09.72Z" transform="translate(-2.61 -2.58)" fill="#72473c"/><path d="M151.42,40H175.1l1-8.81c-.55-.24-.75-.06-.92.37a35.45,35.45,0,0,1-1.73,3.93,5.46,5.46,0,0,1-4.29,3,52.73,52.73,0,0,1-6.16.06,1.42,1.42,0,0,1-1.36-1.32,10.49,10.49,0,0,1-.15-1.68q0-8.66,0-17.31c0-.38,0-.75.05-1.12A2.16,2.16,0,0,1,163.85,15c.43,0,.87,0,1.31,0s.45-.25.35-.62h-14.1c-.1.35-.06.59.34.61s.87,0,1.3.07a2.06,2.06,0,0,1,2,2c.05.53.09,1.06.09,1.59q0,8.61,0,17.22a12.29,12.29,0,0,1-.09,1.49,2.06,2.06,0,0,1-2.1,2.08c-.4,0-.81,0-1.21.08S151.3,39.7,151.42,40Z" transform="translate(-2.61 -2.58)" fill="#72473c"/><path d="M196.76,26.73h-13v1.62h11.38q3.25,0,3.25,3.24v4.89q0,3.26-3.25,3.25H178.87V34.85h14.62V33.23H182.12q-3.26,0-3.25-3.24V25.12q0-3.27,3.25-3.27h16.25Z" transform="translate(-2.61 -2.58)" fill="#ce8129"/><path d="M201.62,25.12q0-3.26,3.25-3.25h13c2.16,0,3.25,1.08,3.25,3.25V39.75h-4.86l0-13H206.5v8.13h8.11L213,39.75h-8.11c-2.17,0-3.26-1.09-3.26-3.25Z" transform="translate(-2.61 -2.58)" fill="#ce8129"/><path d="M224.37,39.75V18.62q0-3.26,3.26-3.25h4.87l-1.62,4.87h-1.63v1.63h1.63v4.87h-1.63v13Z" transform="translate(-2.61 -2.58)" fill="#ce8129"/><path d="M234.13,25.12q0-3.26,3.24-3.25h13q3.24,0,3.24,3.25V39.75h-4.86v-13H239v8.13h8.12l-1.63,4.88h-8.1c-2.18,0-3.26-1.09-3.26-3.25Z" transform="translate(-2.61 -2.58)" fill="#ce8129"/><path d="M256.88,39.75V25.12q0-3.26,3.25-3.25h9.74l-1.63,4.87h-6.48v13Z" transform="translate(-2.61 -2.58)" fill="#ce8129"/><path d="M276.38,15.37l-1.62,4.87h-3.25V15.37Zm0,24.38V21.87h-4.87V39.75Z" transform="translate(-2.61 -2.58)" fill="#ce8129"/><path d="M297.53,26.73h-13v1.62h11.38c2.16,0,3.25,1.08,3.25,3.24v4.89c0,2.17-1.09,3.25-3.25,3.25H279.63V34.85h14.63V33.23H282.89q-3.25,0-3.26-3.24V25.12q0-3.27,3.26-3.27h16.25Z" transform="translate(-2.61 -2.58)" fill="#ce8129"/></svg>