<svg data-name="Layer 1" xmlns="http://www.w3.org/2000/svg" viewBox="0 0 190 100"><path fill="#db828c" d="M0 0h190v100H0z"/><path fill="#fff" d="M0 7.69h190v7.69H0zm0 15.39h190v7.69H0zm0 15.38h190v7.69H0zm0 15.39h190v7.69H0zm0 15.38h190v7.69H0zm0 15.39h190v7.69H0z"/><path fill="#002868" d="M0 0h76.92v53.85H0z"/><path fill="#fff" d="M6.3 2.32l1.81 5.57-4.75-3.44h5.88L4.49 7.89 6.3 2.32zm12.6 0l1.81 5.57-4.75-3.44h5.88l-4.75 3.44 1.81-5.57zm12.6 0l1.81 5.57-4.75-3.44h5.88l-4.75 3.44 1.81-5.57zm12.6 0l1.81 5.57-4.75-3.44h5.88l-4.75 3.44 1.81-5.57zm12.6 0l1.81 5.57-4.75-3.44h5.88l-4.75 3.44 1.81-5.57zm12.6 0l1.81 5.57-4.75-3.44h5.88l-4.75 3.44 1.81-5.57zm-56.7 5.4l1.81 5.57-4.75-3.44h5.88l-4.75 3.44 1.81-5.57zm12.6 0l1.81 5.57-4.75-3.44h5.88l-4.75 3.44 1.81-5.57zm12.6 0l1.81 5.57-4.75-3.44h5.88l-4.75 3.44 1.81-5.57zm12.6 0l1.81 5.57-4.75-3.44h5.88l-4.75 3.44 1.81-5.57zm12.6 0l1.81 5.57-4.75-3.44h5.88l-4.75 3.44L63 7.72zm-56.7 5.4l1.81 5.57-4.75-3.44h5.88l-4.75 3.44 1.81-5.57zm12.6 0l1.81 5.57-4.75-3.44h5.88l-4.75 3.44 1.81-5.57zm12.6 0l1.81 5.57-4.75-3.44h5.88l-4.75 3.44 1.81-5.57zm12.6 0l1.81 5.57-4.75-3.44h5.88l-4.75 3.44 1.81-5.57zm12.6 0l1.81 5.57-4.75-3.44h5.88l-4.75 3.44 1.81-5.57zm12.6 0l1.81 5.57-4.75-3.44h5.88l-4.75 3.44 1.81-5.57zm-56.7 5.4l1.81 5.57-4.75-3.44h5.88l-4.75 3.44 1.81-5.57zm12.6 0l1.81 5.57-4.75-3.44h5.88l-4.75 3.44 1.81-5.57zm12.6 0l1.81 5.57-4.75-3.44h5.88l-4.75 3.44 1.81-5.57zm12.6 0l1.81 5.57-4.75-3.44h5.88l-4.75 3.44 1.81-5.57zm12.6 0l1.81 5.57-4.75-3.44h5.88l-4.75 3.44L63 18.52zm-56.7 5.4l1.81 5.57-4.75-3.44h5.88l-4.75 3.44 1.81-5.57zm12.6 0l1.81 5.57-4.75-3.44h5.88l-4.75 3.44 1.81-5.57zm12.6 0l1.81 5.57-4.75-3.44h5.88l-4.75 3.44 1.81-5.57zm12.6 0l1.81 5.57-4.75-3.44h5.88l-4.75 3.44 1.81-5.57zm12.6 0l1.81 5.57-4.75-3.44h5.88l-4.75 3.44 1.81-5.57zm12.6 0l1.81 5.57-4.75-3.44h5.88l-4.75 3.44 1.81-5.57zm-56.7 5.4l1.81 5.57-4.75-3.44h5.88l-4.75 3.44 1.81-5.57zm12.6 0l1.81 5.57-4.75-3.44h5.88l-4.75 3.44 1.81-5.57zm12.6 0l1.81 5.57-4.75-3.44h5.88l-4.75 3.44 1.81-5.57zm12.6 0l1.81 5.57-4.75-3.44h5.88l-4.75 3.44 1.81-5.57zm12.6 0l1.81 5.57-4.75-3.44h5.88l-4.75 3.44L63 29.32zm-56.7 5.4l1.81 5.57-4.75-3.44h5.88l-4.75 3.44 1.81-5.57zm12.6 0l1.81 5.57-4.75-3.44h5.88l-4.75 3.44 1.81-5.57zm12.6 0l1.81 5.57-4.75-3.44h5.88l-4.75 3.44 1.81-5.57zm12.6 0l1.81 5.57-4.75-3.44h5.88l-4.75 3.44 1.81-5.57zm12.6 0l1.81 5.57-4.75-3.44h5.88l-4.75 3.44 1.81-5.57zm12.6 0l1.81 5.57-4.75-3.44h5.88l-4.75 3.44 1.81-5.57zm-56.7 5.4l1.81 5.57-4.75-3.44h5.88l-4.75 3.44 1.81-5.57zm12.6 0l1.81 5.57-4.75-3.44h5.88l-4.75 3.44 1.81-5.57zm12.6 0l1.81 5.57-4.75-3.44h5.88l-4.75 3.44 1.81-5.57zm12.6 0l1.81 5.57-4.75-3.44h5.88l-4.75 3.44 1.81-5.57zm12.6 0l1.81 5.57-4.75-3.44h5.88l-4.75 3.44L63 40.12zm-56.7 5.4l1.81 5.57-4.75-3.44h5.88l-4.75 3.44 1.81-5.57zm12.6 0l1.81 5.57-4.75-3.44h5.88l-4.75 3.44 1.81-5.57zm12.6 0l1.81 5.57-4.75-3.44h5.88l-4.75 3.44 1.81-5.57zm12.6 0l1.81 5.57-4.75-3.44h5.88l-4.75 3.44 1.81-5.57zm12.6 0l1.81 5.57-4.75-3.44h5.88l-4.75 3.44 1.81-5.57zm12.6 0l1.81 5.57-4.75-3.44h5.88l-4.75 3.44 1.81-5.57z"/></svg>